<svg width="1063.7" height="772.2" xmlns="http://www.w3.org/2000/svg" xmlns:xlink="http://www.w3.org/1999/xlink"><line x1="89.25" y1="7.0" x2="67.5" y2="31.0" style="stroke:black; stroke-width:1px;" />
<line x1="67.5" y1="38.0" x2="27.0" y2="62.0" style="stroke:black; stroke-width:1px;" />
<line x1="27.0" y1="69.0" x2="27.0" y2="93.0" style="stroke:black; stroke-width:1px;" />
<line x1="27.0" y1="100.0" x2="27.0" y2="124.0" style="stroke:black; stroke-width:1px;" />
<line x1="27.0" y1="131.0" x2="27.0" y2="155.0" style="stroke:black; stroke-width:1px;" />
<line x1="67.5" y1="38.0" x2="67.5" y2="62.0" style="stroke:black; stroke-width:1px;" />
<line x1="67.5" y1="38.0" x2="108.0" y2="62.0" style="stroke:black; stroke-width:1px;" />
<line x1="108.0" y1="69.0" x2="108.0" y2="93.0" style="stroke:black; stroke-width:1px;" />
<line x1="108.0" y1="100.0" x2="108.0" y2="124.0" style="stroke:black; stroke-width:1px;" />
<line x1="108.0" y1="131.0" x2="108.0" y2="155.0" style="stroke:black; stroke-width:1px;" />
<line x1="89.25" y1="7.0" x2="111.0" y2="31.0" style="stroke:black; stroke-width:1px;" />
<rect x="91.0" y="124.0" width="34.0" height="14.0" style="fill:white; stroke:white;" rx="1"/>
<text x="93" y="133" style="font-family:sans-serif;font-size:10px;">
value
</text>
<rect x="73.75" y="0.0" width="31.0" height="14.0" style="fill:white; stroke:white;" rx="1"/>
<text x="75" y="9" style="font-family:sans-serif;font-size:10px;">
start
</text>
<rect x="93.5" y="155.0" width="29.0" height="14.0" style="fill:white; stroke:white;" rx="1"/>
<text x="95" y="164" style="font-family:sans-serif;font-size:10px;">
34.5
</text>
<rect x="0.0" y="62.0" width="54.0" height="14.0" style="fill:white; stroke:white;" rx="1"/>
<text x="2" y="71" style="font-family:sans-serif;font-size:10px;">
multExpr
</text>
<rect x="81.0" y="62.0" width="54.0" height="14.0" style="fill:white; stroke:white;" rx="1"/>
<text x="83" y="71" style="font-family:sans-serif;font-size:10px;">
multExpr
</text>
<rect x="61.0" y="62.0" width="13.0" height="14.0" style="fill:white; stroke:white;" rx="1"/>
<text x="63" y="71" style="font-family:sans-serif;font-size:10px;">
+
</text>
<rect x="53.0" y="31.0" width="29.0" height="14.0" style="fill:white; stroke:white;" rx="1"/>
<text x="55" y="40" style="font-family:sans-serif;font-size:10px;">
expr
</text>
<rect x="16.0" y="155.0" width="22.0" height="14.0" style="fill:white; stroke:white;" rx="1"/>
<text x="18" y="164" style="font-family:sans-serif;font-size:10px;">
1.2
</text>
<rect x="3.0" y="93.0" width="48.0" height="14.0" style="fill:white; stroke:white;" rx="1"/>
<text x="5" y="102" style="font-family:sans-serif;font-size:10px;">
primary
</text>
<rect x="84.0" y="93.0" width="48.0" height="14.0" style="fill:white; stroke:white;" rx="1"/>
<text x="86" y="102" style="font-family:sans-serif;font-size:10px;">
primary
</text>
<rect x="10.0" y="124.0" width="34.0" height="14.0" style="fill:white; stroke:white;" rx="1"/>
<text x="12" y="133" style="font-family:sans-serif;font-size:10px;">
value
</text>
<rect x="89.0" y="31.0" width="44.0" height="14.0" style="fill:white; stroke:white;" rx="1"/>
<text x="91" y="40" style="font-family:sans-serif;font-size:10px;">
&lt;EOF&gt;
</text>
</svg>