<svg width="1208.9" height="919.6" xmlns="http://www.w3.org/2000/svg" xmlns:xlink="http://www.w3.org/1999/xlink"><line x1="118.0625" y1="7.0" x2="96.3125" y2="31.0" style="stroke:black; stroke-width:1px;" />
<line x1="96.3125" y1="38.0" x2="27.0" y2="62.0" style="stroke:black; stroke-width:1px;" />
<line x1="27.0" y1="69.0" x2="27.0" y2="93.0" style="stroke:black; stroke-width:1px;" />
<line x1="27.0" y1="100.0" x2="27.0" y2="124.0" style="stroke:black; stroke-width:1px;" />
<line x1="27.0" y1="131.0" x2="14.75" y2="155.0" style="stroke:black; stroke-width:1px;" />
<line x1="27.0" y1="131.0" x2="39.25" y2="155.0" style="stroke:black; stroke-width:1px;" />
<line x1="96.3125" y1="38.0" x2="96.3125" y2="62.0" style="stroke:black; stroke-width:1px;" />
<line x1="96.3125" y1="38.0" x2="165.625" y2="62.0" style="stroke:black; stroke-width:1px;" />
<line x1="165.625" y1="69.0" x2="82.0" y2="93.0" style="stroke:black; stroke-width:1px;" />
<line x1="82.0" y1="100.0" x2="82.0" y2="124.0" style="stroke:black; stroke-width:1px;" />
<line x1="82.0" y1="131.0" x2="71.0" y2="155.0" style="stroke:black; stroke-width:1px;" />
<line x1="82.0" y1="131.0" x2="93.0" y2="155.0" style="stroke:black; stroke-width:1px;" />
<line x1="165.625" y1="69.0" x2="118.0" y2="93.0" style="stroke:black; stroke-width:1px;" />
<line x1="165.625" y1="69.0" x2="154.0" y2="93.0" style="stroke:black; stroke-width:1px;" />
<line x1="154.0" y1="100.0" x2="154.0" y2="124.0" style="stroke:black; stroke-width:1px;" />
<line x1="154.0" y1="131.0" x2="141.75" y2="155.0" style="stroke:black; stroke-width:1px;" />
<line x1="154.0" y1="131.0" x2="166.25" y2="155.0" style="stroke:black; stroke-width:1px;" />
<line x1="165.625" y1="69.0" x2="201.625" y2="93.0" style="stroke:black; stroke-width:1px;" />
<line x1="165.625" y1="69.0" x2="249.25" y2="93.0" style="stroke:black; stroke-width:1px;" />
<line x1="249.25" y1="100.0" x2="223.75" y2="124.0" style="stroke:black; stroke-width:1px;" />
<line x1="249.25" y1="100.0" x2="249.25" y2="124.0" style="stroke:black; stroke-width:1px;" />
<line x1="249.25" y1="131.0" x2="211.25" y2="155.0" style="stroke:black; stroke-width:1px;" />
<line x1="211.25" y1="162.0" x2="211.25" y2="186.0" style="stroke:black; stroke-width:1px;" />
<line x1="211.25" y1="193.0" x2="211.25" y2="217.0" style="stroke:black; stroke-width:1px;" />
<line x1="211.25" y1="224.0" x2="203.0" y2="248.0" style="stroke:black; stroke-width:1px;" />
<line x1="211.25" y1="224.0" x2="219.5" y2="248.0" style="stroke:black; stroke-width:1px;" />
<line x1="249.25" y1="131.0" x2="249.25" y2="155.0" style="stroke:black; stroke-width:1px;" />
<line x1="249.25" y1="131.0" x2="287.25" y2="155.0" style="stroke:black; stroke-width:1px;" />
<line x1="287.25" y1="162.0" x2="287.25" y2="186.0" style="stroke:black; stroke-width:1px;" />
<line x1="287.25" y1="193.0" x2="287.25" y2="217.0" style="stroke:black; stroke-width:1px;" />
<line x1="287.25" y1="224.0" x2="287.25" y2="248.0" style="stroke:black; stroke-width:1px;" />
<line x1="249.25" y1="100.0" x2="274.75" y2="124.0" style="stroke:black; stroke-width:1px;" />
<line x1="118.0625" y1="7.0" x2="139.8125" y2="31.0" style="stroke:black; stroke-width:1px;" />
<rect x="225.25" y="93.0" width="48.0" height="14.0" style="fill:white; stroke:white;" rx="1"/>
<text x="227" y="102" style="font-family:sans-serif;font-size:10px;">
primary
</text>
<rect x="137.0" y="124.0" width="34.0" height="14.0" style="fill:white; stroke:white;" rx="1"/>
<text x="139" y="133" style="font-family:sans-serif;font-size:10px;">
value
</text>
<rect x="130.0" y="93.0" width="48.0" height="14.0" style="fill:white; stroke:white;" rx="1"/>
<text x="132" y="102" style="font-family:sans-serif;font-size:10px;">
primary
</text>
<rect x="260.25" y="155.0" width="54.0" height="14.0" style="fill:white; stroke:white;" rx="1"/>
<text x="262" y="164" style="font-family:sans-serif;font-size:10px;">
multExpr
</text>
<rect x="102.5625" y="0.0" width="31.0" height="14.0" style="fill:white; stroke:white;" rx="1"/>
<text x="104" y="9" style="font-family:sans-serif;font-size:10px;">
start
</text>
<rect x="135.25" y="155.0" width="13.0" height="14.0" style="fill:white; stroke:white;" rx="1"/>
<text x="137" y="164" style="font-family:sans-serif;font-size:10px;">
+
</text>
<rect x="245.25" y="155.0" width="8.0" height="14.0" style="fill:white; stroke:white;" rx="1"/>
<text x="247" y="164" style="font-family:sans-serif;font-size:10px;">
-
</text>
<rect x="199.0" y="248.0" width="8.0" height="14.0" style="fill:white; stroke:white;" rx="1"/>
<text x="201" y="257" style="font-family:sans-serif;font-size:10px;">
-
</text>
<rect x="65.0" y="124.0" width="34.0" height="14.0" style="fill:white; stroke:white;" rx="1"/>
<text x="67" y="133" style="font-family:sans-serif;font-size:10px;">
value
</text>
<rect x="28.25" y="155.0" width="22.0" height="14.0" style="fill:white; stroke:white;" rx="1"/>
<text x="30" y="164" style="font-family:sans-serif;font-size:10px;">
1.2
</text>
<rect x="10.0" y="124.0" width="34.0" height="14.0" style="fill:white; stroke:white;" rx="1"/>
<text x="12" y="133" style="font-family:sans-serif;font-size:10px;">
value
</text>
<rect x="155.25" y="155.0" width="22.0" height="14.0" style="fill:white; stroke:white;" rx="1"/>
<text x="157" y="164" style="font-family:sans-serif;font-size:10px;">
6.7
</text>
<rect x="281.75" y="248.0" width="11.0" height="14.0" style="fill:white; stroke:white;" rx="1"/>
<text x="283" y="257" style="font-family:sans-serif;font-size:10px;">
9
</text>
<rect x="82.0" y="155.0" width="22.0" height="14.0" style="fill:white; stroke:white;" rx="1"/>
<text x="84" y="164" style="font-family:sans-serif;font-size:10px;">
3.5
</text>
<rect x="8.25" y="155.0" width="13.0" height="14.0" style="fill:white; stroke:white;" rx="1"/>
<text x="10" y="164" style="font-family:sans-serif;font-size:10px;">
+
</text>
<rect x="117.8125" y="31.0" width="44.0" height="14.0" style="fill:white; stroke:white;" rx="1"/>
<text x="119" y="40" style="font-family:sans-serif;font-size:10px;">
&lt;EOF&gt;
</text>
<rect x="214.0" y="248.0" width="11.0" height="14.0" style="fill:white; stroke:white;" rx="1"/>
<text x="216" y="257" style="font-family:sans-serif;font-size:10px;">
8
</text>
<rect x="113.0" y="93.0" width="10.0" height="14.0" style="fill:white; stroke:white;" rx="1"/>
<text x="115" y="102" style="font-family:sans-serif;font-size:10px;">
*
</text>
<rect x="219.75" y="124.0" width="8.0" height="14.0" style="fill:white; stroke:white;" rx="1"/>
<text x="221" y="133" style="font-family:sans-serif;font-size:10px;">
(
</text>
<rect x="67.0" y="155.0" width="8.0" height="14.0" style="fill:white; stroke:white;" rx="1"/>
<text x="69" y="164" style="font-family:sans-serif;font-size:10px;">
-
</text>
<rect x="194.25" y="217.0" width="34.0" height="14.0" style="fill:white; stroke:white;" rx="1"/>
<text x="196" y="226" style="font-family:sans-serif;font-size:10px;">
value
</text>
<rect x="138.625" y="62.0" width="54.0" height="14.0" style="fill:white; stroke:white;" rx="1"/>
<text x="140" y="71" style="font-family:sans-serif;font-size:10px;">
multExpr
</text>
<rect x="3.0" y="93.0" width="48.0" height="14.0" style="fill:white; stroke:white;" rx="1"/>
<text x="5" y="102" style="font-family:sans-serif;font-size:10px;">
primary
</text>
<rect x="89.8125" y="62.0" width="13.0" height="14.0" style="fill:white; stroke:white;" rx="1"/>
<text x="91" y="71" style="font-family:sans-serif;font-size:10px;">
+
</text>
<rect x="184.25" y="155.0" width="54.0" height="14.0" style="fill:white; stroke:white;" rx="1"/>
<text x="186" y="164" style="font-family:sans-serif;font-size:10px;">
multExpr
</text>
<rect x="187.25" y="186.0" width="48.0" height="14.0" style="fill:white; stroke:white;" rx="1"/>
<text x="189" y="195" style="font-family:sans-serif;font-size:10px;">
primary
</text>
<rect x="0.0" y="62.0" width="54.0" height="14.0" style="fill:white; stroke:white;" rx="1"/>
<text x="2" y="71" style="font-family:sans-serif;font-size:10px;">
multExpr
</text>
<rect x="58.0" y="93.0" width="48.0" height="14.0" style="fill:white; stroke:white;" rx="1"/>
<text x="60" y="102" style="font-family:sans-serif;font-size:10px;">
primary
</text>
<rect x="234.75" y="124.0" width="29.0" height="14.0" style="fill:white; stroke:white;" rx="1"/>
<text x="236" y="133" style="font-family:sans-serif;font-size:10px;">
expr
</text>
<rect x="270.25" y="217.0" width="34.0" height="14.0" style="fill:white; stroke:white;" rx="1"/>
<text x="272" y="226" style="font-family:sans-serif;font-size:10px;">
value
</text>
<rect x="81.8125" y="31.0" width="29.0" height="14.0" style="fill:white; stroke:white;" rx="1"/>
<text x="83" y="40" style="font-family:sans-serif;font-size:10px;">
expr
</text>
<rect x="197.625" y="93.0" width="8.0" height="14.0" style="fill:white; stroke:white;" rx="1"/>
<text x="199" y="102" style="font-family:sans-serif;font-size:10px;">
/
</text>
<rect x="270.75" y="124.0" width="8.0" height="14.0" style="fill:white; stroke:white;" rx="1"/>
<text x="272" y="133" style="font-family:sans-serif;font-size:10px;">
)
</text>
<rect x="263.25" y="186.0" width="48.0" height="14.0" style="fill:white; stroke:white;" rx="1"/>
<text x="265" y="195" style="font-family:sans-serif;font-size:10px;">
primary
</text>
</svg>