<svg width="1281.5" height="993.3000000000001" xmlns="http://www.w3.org/2000/svg" xmlns:xlink="http://www.w3.org/1999/xlink"><line x1="115.0" y1="7.0" x2="93.25" y2="31.0" style="stroke:black; stroke-width:1px;" />
<line x1="93.25" y1="38.0" x2="27.0" y2="62.0" style="stroke:black; stroke-width:1px;" />
<line x1="27.0" y1="69.0" x2="27.0" y2="93.0" style="stroke:black; stroke-width:1px;" />
<line x1="27.0" y1="100.0" x2="27.0" y2="124.0" style="stroke:black; stroke-width:1px;" />
<line x1="27.0" y1="131.0" x2="27.0" y2="155.0" style="stroke:black; stroke-width:1px;" />
<line x1="93.25" y1="38.0" x2="93.25" y2="62.0" style="stroke:black; stroke-width:1px;" />
<line x1="93.25" y1="38.0" x2="159.5" y2="62.0" style="stroke:black; stroke-width:1px;" />
<line x1="159.5" y1="69.0" x2="82.0" y2="93.0" style="stroke:black; stroke-width:1px;" />
<line x1="82.0" y1="100.0" x2="82.0" y2="124.0" style="stroke:black; stroke-width:1px;" />
<line x1="82.0" y1="131.0" x2="82.0" y2="155.0" style="stroke:black; stroke-width:1px;" />
<line x1="159.5" y1="69.0" x2="118.0" y2="93.0" style="stroke:black; stroke-width:1px;" />
<line x1="159.5" y1="69.0" x2="154.0" y2="93.0" style="stroke:black; stroke-width:1px;" />
<line x1="154.0" y1="100.0" x2="154.0" y2="124.0" style="stroke:black; stroke-width:1px;" />
<line x1="154.0" y1="131.0" x2="154.0" y2="155.0" style="stroke:black; stroke-width:1px;" />
<line x1="159.5" y1="69.0" x2="195.5" y2="93.0" style="stroke:black; stroke-width:1px;" />
<line x1="159.5" y1="69.0" x2="237.0" y2="93.0" style="stroke:black; stroke-width:1px;" />
<line x1="237.0" y1="100.0" x2="211.5" y2="124.0" style="stroke:black; stroke-width:1px;" />
<line x1="237.0" y1="100.0" x2="237.0" y2="124.0" style="stroke:black; stroke-width:1px;" />
<line x1="237.0" y1="131.0" x2="199.0" y2="155.0" style="stroke:black; stroke-width:1px;" />
<line x1="199.0" y1="162.0" x2="199.0" y2="186.0" style="stroke:black; stroke-width:1px;" />
<line x1="199.0" y1="193.0" x2="199.0" y2="217.0" style="stroke:black; stroke-width:1px;" />
<line x1="199.0" y1="224.0" x2="199.0" y2="248.0" style="stroke:black; stroke-width:1px;" />
<line x1="237.0" y1="131.0" x2="237.0" y2="155.0" style="stroke:black; stroke-width:1px;" />
<line x1="237.0" y1="131.0" x2="275.0" y2="155.0" style="stroke:black; stroke-width:1px;" />
<line x1="275.0" y1="162.0" x2="275.0" y2="186.0" style="stroke:black; stroke-width:1px;" />
<line x1="275.0" y1="193.0" x2="275.0" y2="217.0" style="stroke:black; stroke-width:1px;" />
<line x1="275.0" y1="224.0" x2="275.0" y2="248.0" style="stroke:black; stroke-width:1px;" />
<line x1="237.0" y1="100.0" x2="262.5" y2="124.0" style="stroke:black; stroke-width:1px;" />
<line x1="115.0" y1="7.0" x2="136.75" y2="31.0" style="stroke:black; stroke-width:1px;" />
<rect x="99.5" y="0.0" width="31.0" height="14.0" style="fill:white; stroke:white;" rx="1"/>
<text x="101" y="9" style="font-family:sans-serif;font-size:10px;">
start
</text>
<rect x="193.5" y="248.0" width="11.0" height="14.0" style="fill:white; stroke:white;" rx="1"/>
<text x="195" y="257" style="font-family:sans-serif;font-size:10px;">
8
</text>
<rect x="182.0" y="217.0" width="34.0" height="14.0" style="fill:white; stroke:white;" rx="1"/>
<text x="184" y="226" style="font-family:sans-serif;font-size:10px;">
value
</text>
<rect x="213.0" y="93.0" width="48.0" height="14.0" style="fill:white; stroke:white;" rx="1"/>
<text x="215" y="102" style="font-family:sans-serif;font-size:10px;">
primary
</text>
<rect x="130.0" y="93.0" width="48.0" height="14.0" style="fill:white; stroke:white;" rx="1"/>
<text x="132" y="102" style="font-family:sans-serif;font-size:10px;">
primary
</text>
<rect x="248.0" y="155.0" width="54.0" height="14.0" style="fill:white; stroke:white;" rx="1"/>
<text x="250" y="164" style="font-family:sans-serif;font-size:10px;">
multExpr
</text>
<rect x="172.0" y="155.0" width="54.0" height="14.0" style="fill:white; stroke:white;" rx="1"/>
<text x="174" y="164" style="font-family:sans-serif;font-size:10px;">
multExpr
</text>
<rect x="0.0" y="62.0" width="54.0" height="14.0" style="fill:white; stroke:white;" rx="1"/>
<text x="2" y="71" style="font-family:sans-serif;font-size:10px;">
multExpr
</text>
<rect x="113.0" y="93.0" width="10.0" height="14.0" style="fill:white; stroke:white;" rx="1"/>
<text x="115" y="102" style="font-family:sans-serif;font-size:10px;">
*
</text>
<rect x="16.0" y="155.0" width="22.0" height="14.0" style="fill:white; stroke:white;" rx="1"/>
<text x="18" y="164" style="font-family:sans-serif;font-size:10px;">
1.2
</text>
<rect x="3.0" y="93.0" width="48.0" height="14.0" style="fill:white; stroke:white;" rx="1"/>
<text x="5" y="102" style="font-family:sans-serif;font-size:10px;">
primary
</text>
<rect x="58.0" y="93.0" width="48.0" height="14.0" style="fill:white; stroke:white;" rx="1"/>
<text x="60" y="102" style="font-family:sans-serif;font-size:10px;">
primary
</text>
<rect x="191.5" y="93.0" width="8.0" height="14.0" style="fill:white; stroke:white;" rx="1"/>
<text x="193" y="102" style="font-family:sans-serif;font-size:10px;">
/
</text>
<rect x="207.5" y="124.0" width="8.0" height="14.0" style="fill:white; stroke:white;" rx="1"/>
<text x="209" y="133" style="font-family:sans-serif;font-size:10px;">
(
</text>
<rect x="233.0" y="155.0" width="8.0" height="14.0" style="fill:white; stroke:white;" rx="1"/>
<text x="235" y="164" style="font-family:sans-serif;font-size:10px;">
-
</text>
<rect x="137.0" y="124.0" width="34.0" height="14.0" style="fill:white; stroke:white;" rx="1"/>
<text x="139" y="133" style="font-family:sans-serif;font-size:10px;">
value
</text>
<rect x="132.5" y="62.0" width="54.0" height="14.0" style="fill:white; stroke:white;" rx="1"/>
<text x="134" y="71" style="font-family:sans-serif;font-size:10px;">
multExpr
</text>
<rect x="65.0" y="124.0" width="34.0" height="14.0" style="fill:white; stroke:white;" rx="1"/>
<text x="67" y="133" style="font-family:sans-serif;font-size:10px;">
value
</text>
<rect x="269.5" y="248.0" width="11.0" height="14.0" style="fill:white; stroke:white;" rx="1"/>
<text x="271" y="257" style="font-family:sans-serif;font-size:10px;">
9
</text>
<rect x="71.0" y="155.0" width="22.0" height="14.0" style="fill:white; stroke:white;" rx="1"/>
<text x="73" y="164" style="font-family:sans-serif;font-size:10px;">
3.5
</text>
<rect x="251.0" y="186.0" width="48.0" height="14.0" style="fill:white; stroke:white;" rx="1"/>
<text x="253" y="195" style="font-family:sans-serif;font-size:10px;">
primary
</text>
<rect x="258.0" y="217.0" width="34.0" height="14.0" style="fill:white; stroke:white;" rx="1"/>
<text x="260" y="226" style="font-family:sans-serif;font-size:10px;">
value
</text>
<rect x="86.75" y="62.0" width="13.0" height="14.0" style="fill:white; stroke:white;" rx="1"/>
<text x="88" y="71" style="font-family:sans-serif;font-size:10px;">
+
</text>
<rect x="143.0" y="155.0" width="22.0" height="14.0" style="fill:white; stroke:white;" rx="1"/>
<text x="145" y="164" style="font-family:sans-serif;font-size:10px;">
6.7
</text>
<rect x="78.75" y="31.0" width="29.0" height="14.0" style="fill:white; stroke:white;" rx="1"/>
<text x="80" y="40" style="font-family:sans-serif;font-size:10px;">
expr
</text>
<rect x="222.5" y="124.0" width="29.0" height="14.0" style="fill:white; stroke:white;" rx="1"/>
<text x="224" y="133" style="font-family:sans-serif;font-size:10px;">
expr
</text>
<rect x="175.0" y="186.0" width="48.0" height="14.0" style="fill:white; stroke:white;" rx="1"/>
<text x="177" y="195" style="font-family:sans-serif;font-size:10px;">
primary
</text>
<rect x="114.75" y="31.0" width="44.0" height="14.0" style="fill:white; stroke:white;" rx="1"/>
<text x="116" y="40" style="font-family:sans-serif;font-size:10px;">
&lt;EOF&gt;
</text>
<rect x="10.0" y="124.0" width="34.0" height="14.0" style="fill:white; stroke:white;" rx="1"/>
<text x="12" y="133" style="font-family:sans-serif;font-size:10px;">
value
</text>
<rect x="258.5" y="124.0" width="8.0" height="14.0" style="fill:white; stroke:white;" rx="1"/>
<text x="260" y="133" style="font-family:sans-serif;font-size:10px;">
)
</text>
</svg>