<svg width="2205.5" height="1217.7" xmlns="http://www.w3.org/2000/svg" xmlns:xlink="http://www.w3.org/1999/xlink"><line x1="518.5" y1="8.0" x2="50.5" y2="33.0" style="stroke:black; stroke-width:1px;" />
<line x1="50.5" y1="41.0" x2="50.5" y2="66.0" style="stroke:black; stroke-width:1px;" />
<line x1="50.5" y1="74.0" x2="19.5" y2="99.0" style="stroke:black; stroke-width:1px;" />
<line x1="50.5" y1="74.0" x2="58.5" y2="99.0" style="stroke:black; stroke-width:1px;" />
<line x1="50.5" y1="74.0" x2="81.5" y2="99.0" style="stroke:black; stroke-width:1px;" />
<line x1="518.5" y1="8.0" x2="198.25" y2="33.0" style="stroke:black; stroke-width:1px;" />
<line x1="198.25" y1="41.0" x2="198.25" y2="66.0" style="stroke:black; stroke-width:1px;" />
<line x1="198.25" y1="74.0" x2="103.0" y2="99.0" style="stroke:black; stroke-width:1px;" />
<line x1="198.25" y1="74.0" x2="133.5" y2="99.0" style="stroke:black; stroke-width:1px;" />
<line x1="198.25" y1="74.0" x2="156.5" y2="99.0" style="stroke:black; stroke-width:1px;" />
<line x1="198.25" y1="74.0" x2="206.5" y2="99.0" style="stroke:black; stroke-width:1px;" />
<line x1="198.25" y1="74.0" x2="256.5" y2="99.0" style="stroke:black; stroke-width:1px;" />
<line x1="198.25" y1="74.0" x2="275.0" y2="99.0" style="stroke:black; stroke-width:1px;" />
<line x1="198.25" y1="74.0" x2="293.5" y2="99.0" style="stroke:black; stroke-width:1px;" />
<line x1="518.5" y1="8.0" x2="417.75" y2="33.0" style="stroke:black; stroke-width:1px;" />
<line x1="417.75" y1="41.0" x2="417.75" y2="66.0" style="stroke:black; stroke-width:1px;" />
<line x1="417.75" y1="74.0" x2="321.0" y2="99.0" style="stroke:black; stroke-width:1px;" />
<line x1="417.75" y1="74.0" x2="356.5" y2="99.0" style="stroke:black; stroke-width:1px;" />
<line x1="417.75" y1="74.0" x2="381.0" y2="99.0" style="stroke:black; stroke-width:1px;" />
<line x1="417.75" y1="74.0" x2="418.5" y2="99.0" style="stroke:black; stroke-width:1px;" />
<line x1="418.5" y1="107.0" x2="365.5" y2="132.0" style="stroke:black; stroke-width:1px;" />
<line x1="418.5" y1="107.0" x2="389.5" y2="132.0" style="stroke:black; stroke-width:1px;" />
<line x1="418.5" y1="107.0" x2="423.5" y2="132.0" style="stroke:black; stroke-width:1px;" />
<line x1="423.5" y1="140.0" x2="357.375" y2="165.0" style="stroke:black; stroke-width:1px;" />
<line x1="357.375" y1="173.0" x2="285.875" y2="198.0" style="stroke:black; stroke-width:1px;" />
<line x1="357.375" y1="173.0" x2="302.875" y2="198.0" style="stroke:black; stroke-width:1px;" />
<line x1="357.375" y1="173.0" x2="319.875" y2="198.0" style="stroke:black; stroke-width:1px;" />
<line x1="357.375" y1="173.0" x2="336.875" y2="198.0" style="stroke:black; stroke-width:1px;" />
<line x1="357.375" y1="173.0" x2="354.375" y2="198.0" style="stroke:black; stroke-width:1px;" />
<line x1="357.375" y1="173.0" x2="393.375" y2="198.0" style="stroke:black; stroke-width:1px;" />
<line x1="357.375" y1="173.0" x2="428.875" y2="198.0" style="stroke:black; stroke-width:1px;" />
<line x1="423.5" y1="140.0" x2="489.625" y2="165.0" style="stroke:black; stroke-width:1px;" />
<line x1="489.625" y1="173.0" x2="447.875" y2="198.0" style="stroke:black; stroke-width:1px;" />
<line x1="489.625" y1="173.0" x2="466.875" y2="198.0" style="stroke:black; stroke-width:1px;" />
<line x1="489.625" y1="173.0" x2="488.375" y2="198.0" style="stroke:black; stroke-width:1px;" />
<line x1="489.625" y1="173.0" x2="531.375" y2="198.0" style="stroke:black; stroke-width:1px;" />
<line x1="418.5" y1="107.0" x2="457.5" y2="132.0" style="stroke:black; stroke-width:1px;" />
<line x1="418.5" y1="107.0" x2="471.5" y2="132.0" style="stroke:black; stroke-width:1px;" />
<line x1="417.75" y1="74.0" x2="462.0" y2="99.0" style="stroke:black; stroke-width:1px;" />
<line x1="417.75" y1="74.0" x2="492.5" y2="99.0" style="stroke:black; stroke-width:1px;" />
<line x1="417.75" y1="74.0" x2="514.5" y2="99.0" style="stroke:black; stroke-width:1px;" />
<line x1="518.5" y1="8.0" x2="946.0" y2="33.0" style="stroke:black; stroke-width:1px;" />
<line x1="946.0" y1="41.0" x2="946.0" y2="66.0" style="stroke:black; stroke-width:1px;" />
<line x1="946.0" y1="74.0" x2="558.5" y2="99.0" style="stroke:black; stroke-width:1px;" />
<line x1="946.0" y1="74.0" x2="624.5" y2="99.0" style="stroke:black; stroke-width:1px;" />
<line x1="946.0" y1="74.0" x2="664.5" y2="99.0" style="stroke:black; stroke-width:1px;" />
<line x1="946.0" y1="74.0" x2="690.5" y2="99.0" style="stroke:black; stroke-width:1px;" />
<line x1="946.0" y1="74.0" x2="715.0" y2="99.0" style="stroke:black; stroke-width:1px;" />
<line x1="946.0" y1="74.0" x2="756.5" y2="99.0" style="stroke:black; stroke-width:1px;" />
<line x1="756.5" y1="107.0" x2="676.0" y2="132.0" style="stroke:black; stroke-width:1px;" />
<line x1="756.5" y1="107.0" x2="709.0" y2="132.0" style="stroke:black; stroke-width:1px;" />
<line x1="756.5" y1="107.0" x2="728.0" y2="132.0" style="stroke:black; stroke-width:1px;" />
<line x1="756.5" y1="107.0" x2="747.0" y2="132.0" style="stroke:black; stroke-width:1px;" />
<line x1="756.5" y1="107.0" x2="766.0" y2="132.0" style="stroke:black; stroke-width:1px;" />
<line x1="756.5" y1="107.0" x2="801.5" y2="132.0" style="stroke:black; stroke-width:1px;" />
<line x1="756.5" y1="107.0" x2="837.0" y2="132.0" style="stroke:black; stroke-width:1px;" />
<line x1="946.0" y1="74.0" x2="834.0" y2="99.0" style="stroke:black; stroke-width:1px;" />
<line x1="946.0" y1="74.0" x2="911.0" y2="99.0" style="stroke:black; stroke-width:1px;" />
<line x1="911.0" y1="107.0" x2="856.0" y2="132.0" style="stroke:black; stroke-width:1px;" />
<line x1="911.0" y1="107.0" x2="879.5" y2="132.0" style="stroke:black; stroke-width:1px;" />
<line x1="911.0" y1="107.0" x2="925.0" y2="132.0" style="stroke:black; stroke-width:1px;" />
<line x1="925.0" y1="140.0" x2="925.0" y2="165.0" style="stroke:black; stroke-width:1px;" />
<line x1="925.0" y1="173.0" x2="886.0" y2="198.0" style="stroke:black; stroke-width:1px;" />
<line x1="886.0" y1="206.0" x2="886.0" y2="231.0" style="stroke:black; stroke-width:1px;" />
<line x1="886.0" y1="239.0" x2="886.0" y2="264.0" style="stroke:black; stroke-width:1px;" />
<line x1="886.0" y1="272.0" x2="886.0" y2="297.0" style="stroke:black; stroke-width:1px;" />
<line x1="925.0" y1="173.0" x2="925.0" y2="198.0" style="stroke:black; stroke-width:1px;" />
<line x1="925.0" y1="173.0" x2="964.0" y2="198.0" style="stroke:black; stroke-width:1px;" />
<line x1="964.0" y1="206.0" x2="964.0" y2="231.0" style="stroke:black; stroke-width:1px;" />
<line x1="964.0" y1="239.0" x2="964.0" y2="264.0" style="stroke:black; stroke-width:1px;" />
<line x1="964.0" y1="272.0" x2="964.0" y2="297.0" style="stroke:black; stroke-width:1px;" />
<line x1="911.0" y1="107.0" x2="966.0" y2="132.0" style="stroke:black; stroke-width:1px;" />
<line x1="946.0" y1="74.0" x2="1058.0" y2="99.0" style="stroke:black; stroke-width:1px;" />
<line x1="1058.0" y1="107.0" x2="1003.0" y2="132.0" style="stroke:black; stroke-width:1px;" />
<line x1="1058.0" y1="107.0" x2="1026.5" y2="132.0" style="stroke:black; stroke-width:1px;" />
<line x1="1058.0" y1="107.0" x2="1072.0" y2="132.0" style="stroke:black; stroke-width:1px;" />
<line x1="1072.0" y1="140.0" x2="1072.0" y2="165.0" style="stroke:black; stroke-width:1px;" />
<line x1="1072.0" y1="173.0" x2="1072.0" y2="198.0" style="stroke:black; stroke-width:1px;" />
<line x1="1072.0" y1="206.0" x2="1024.0" y2="231.0" style="stroke:black; stroke-width:1px;" />
<line x1="1024.0" y1="239.0" x2="1024.0" y2="264.0" style="stroke:black; stroke-width:1px;" />
<line x1="1024.0" y1="272.0" x2="983.0" y2="297.0" style="stroke:black; stroke-width:1px;" />
<line x1="1024.0" y1="272.0" x2="1024.0" y2="297.0" style="stroke:black; stroke-width:1px;" />
<line x1="1024.0" y1="305.0" x2="1024.0" y2="330.0" style="stroke:black; stroke-width:1px;" />
<line x1="1024.0" y1="338.0" x2="1024.0" y2="363.0" style="stroke:black; stroke-width:1px;" />
<line x1="1024.0" y1="371.0" x2="1024.0" y2="396.0" style="stroke:black; stroke-width:1px;" />
<line x1="1024.0" y1="404.0" x2="1003.5" y2="429.0" style="stroke:black; stroke-width:1px;" />
<line x1="1024.0" y1="404.0" x2="1044.5" y2="429.0" style="stroke:black; stroke-width:1px;" />
<line x1="1044.5" y1="437.0" x2="1044.5" y2="462.0" style="stroke:black; stroke-width:1px;" />
<line x1="1044.5" y1="470.0" x2="1044.5" y2="495.0" style="stroke:black; stroke-width:1px;" />
<line x1="1024.0" y1="272.0" x2="1065.0" y2="297.0" style="stroke:black; stroke-width:1px;" />
<line x1="1072.0" y1="206.0" x2="1072.0" y2="231.0" style="stroke:black; stroke-width:1px;" />
<line x1="1072.0" y1="206.0" x2="1120.0" y2="231.0" style="stroke:black; stroke-width:1px;" />
<line x1="1120.0" y1="239.0" x2="1120.0" y2="264.0" style="stroke:black; stroke-width:1px;" />
<line x1="1120.0" y1="272.0" x2="1079.0" y2="297.0" style="stroke:black; stroke-width:1px;" />
<line x1="1120.0" y1="272.0" x2="1120.0" y2="297.0" style="stroke:black; stroke-width:1px;" />
<line x1="1120.0" y1="305.0" x2="1120.0" y2="330.0" style="stroke:black; stroke-width:1px;" />
<line x1="1120.0" y1="338.0" x2="1120.0" y2="363.0" style="stroke:black; stroke-width:1px;" />
<line x1="1120.0" y1="371.0" x2="1120.0" y2="396.0" style="stroke:black; stroke-width:1px;" />
<line x1="1120.0" y1="404.0" x2="1099.5" y2="429.0" style="stroke:black; stroke-width:1px;" />
<line x1="1120.0" y1="404.0" x2="1140.5" y2="429.0" style="stroke:black; stroke-width:1px;" />
<line x1="1140.5" y1="437.0" x2="1140.5" y2="462.0" style="stroke:black; stroke-width:1px;" />
<line x1="1140.5" y1="470.0" x2="1140.5" y2="495.0" style="stroke:black; stroke-width:1px;" />
<line x1="1120.0" y1="272.0" x2="1161.0" y2="297.0" style="stroke:black; stroke-width:1px;" />
<line x1="1058.0" y1="107.0" x2="1113.0" y2="132.0" style="stroke:black; stroke-width:1px;" />
<line x1="946.0" y1="74.0" x2="1206.0" y2="99.0" style="stroke:black; stroke-width:1px;" />
<line x1="1206.0" y1="107.0" x2="1151.0" y2="132.0" style="stroke:black; stroke-width:1px;" />
<line x1="1206.0" y1="107.0" x2="1174.5" y2="132.0" style="stroke:black; stroke-width:1px;" />
<line x1="1206.0" y1="107.0" x2="1220.0" y2="132.0" style="stroke:black; stroke-width:1px;" />
<line x1="1220.0" y1="140.0" x2="1220.0" y2="165.0" style="stroke:black; stroke-width:1px;" />
<line x1="1220.0" y1="173.0" x2="1220.0" y2="198.0" style="stroke:black; stroke-width:1px;" />
<line x1="1220.0" y1="206.0" x2="1178.0" y2="231.0" style="stroke:black; stroke-width:1px;" />
<line x1="1178.0" y1="239.0" x2="1178.0" y2="264.0" style="stroke:black; stroke-width:1px;" />
<line x1="1178.0" y1="272.0" x2="1178.0" y2="297.0" style="stroke:black; stroke-width:1px;" />
<line x1="1220.0" y1="206.0" x2="1220.0" y2="231.0" style="stroke:black; stroke-width:1px;" />
<line x1="1220.0" y1="206.0" x2="1262.0" y2="231.0" style="stroke:black; stroke-width:1px;" />
<line x1="1262.0" y1="239.0" x2="1262.0" y2="264.0" style="stroke:black; stroke-width:1px;" />
<line x1="1262.0" y1="272.0" x2="1262.0" y2="297.0" style="stroke:black; stroke-width:1px;" />
<line x1="1206.0" y1="107.0" x2="1261.0" y2="132.0" style="stroke:black; stroke-width:1px;" />
<line x1="946.0" y1="74.0" x2="1253.0" y2="99.0" style="stroke:black; stroke-width:1px;" />
<line x1="946.0" y1="74.0" x2="1297.5" y2="99.0" style="stroke:black; stroke-width:1px;" />
<line x1="946.0" y1="74.0" x2="1333.5" y2="99.0" style="stroke:black; stroke-width:1px;" />
<line x1="518.5" y1="8.0" x2="986.5" y2="33.0" style="stroke:black; stroke-width:1px;" />
<rect x="1239.0" y="231.0" width="46.0" height="16.0" style="fill:orange; stroke:rgb(0,0,0);" rx="1"/>
<text x="1241" y="240" style="font-family:sans-serif;font-size:10px;">
notExpr
</text>
<rect x="894.5" y="132.0" width="61.0" height="16.0" style="fill:orange; stroke:rgb(0,0,0);" rx="1"/>
<text x="896" y="141" style="font-family:sans-serif;font-size:10px;">
expression
</text>
<rect x="153.0" y="99.0" width="7.0" height="16.0" style="fill:orange; stroke:rgb(0,0,0);" rx="1"/>
<text x="155" y="108" style="font-family:sans-serif;font-size:10px;">
.
</text>
<rect x="320.875" y="165.0" width="73.0" height="16.0" style="fill:orange; stroke:rgb(0,0,0);" rx="1"/>
<text x="322" y="174" style="font-family:sans-serif;font-size:10px;">
in_out_signal
</text>
<rect x="738.5" y="132.0" width="17.0" height="16.0" style="fill:orange; stroke:rgb(0,0,0);" rx="1"/>
<text x="740" y="141" style="font-family:sans-serif;font-size:10px;">
p1
</text>
<rect x="863.0" y="231.0" width="46.0" height="16.0" style="fill:orange; stroke:rgb(0,0,0);" rx="1"/>
<text x="865" y="240" style="font-family:sans-serif;font-size:10px;">
notExpr
</text>
<rect x="92.0" y="99.0" width="22.0" height="16.0" style="fill:orange; stroke:rgb(0,0,0);" rx="1"/>
<text x="94" y="108" style="font-family:sans-serif;font-size:10px;">
use
</text>
<rect x="941.0" y="264.0" width="46.0" height="16.0" style="fill:orange; stroke:rgb(0,0,0);" rx="1"/>
<text x="943" y="273" style="font-family:sans-serif;font-size:10px;">
primary
</text>
<rect x="1171.5" y="297.0" width="13.0" height="16.0" style="fill:orange; stroke:rgb(0,0,0);" rx="1"/>
<text x="1173" y="306" style="font-family:sans-serif;font-size:10px;">
i0
</text>
<rect x="1097.0" y="264.0" width="46.0" height="16.0" style="fill:orange; stroke:rgb(0,0,0);" rx="1"/>
<text x="1099" y="273" style="font-family:sans-serif;font-size:10px;">
primary
</text>
<rect x="1109.5" y="132.0" width="7.0" height="16.0" style="fill:orange; stroke:rgb(0,0,0);" rx="1"/>
<text x="1111" y="141" style="font-family:sans-serif;font-size:10px;">
;
</text>
<rect x="1189.5" y="132.0" width="61.0" height="16.0" style="fill:orange; stroke:rgb(0,0,0);" rx="1"/>
<text x="1191" y="141" style="font-family:sans-serif;font-size:10px;">
expression
</text>
<rect x="940.0" y="198.0" width="48.0" height="16.0" style="fill:orange; stroke:rgb(0,0,0);" rx="1"/>
<text x="942" y="207" style="font-family:sans-serif;font-size:10px;">
andExpr
</text>
<rect x="10.0" y="66.0" width="81.0" height="16.0" style="fill:orange; stroke:rgb(0,0,0);" rx="1"/>
<text x="12" y="75" style="font-family:sans-serif;font-size:10px;">
lib_declaration
</text>
<rect x="871.5" y="132.0" width="16.0" height="16.0" style="fill:orange; stroke:rgb(0,0,0);" rx="1"/>
<text x="873" y="141" style="font-family:sans-serif;font-size:10px;">
&lt;=
</text>
<rect x="862.0" y="198.0" width="48.0" height="16.0" style="fill:orange; stroke:rgb(0,0,0);" rx="1"/>
<text x="864" y="207" style="font-family:sans-serif;font-size:10px;">
andExpr
</text>
<rect x="439.375" y="198.0" width="17.0" height="16.0" style="fill:orange; stroke:rgb(0,0,0);" rx="1"/>
<text x="441" y="207" style="font-family:sans-serif;font-size:10px;">
eq
</text>
<rect x="658.5" y="132.0" width="35.0" height="16.0" style="fill:orange; stroke:rgb(0,0,0);" rx="1"/>
<text x="660" y="141" style="font-family:sans-serif;font-size:10px;">
signal
</text>
<rect x="1000.0" y="363.0" width="48.0" height="16.0" style="fill:orange; stroke:rgb(0,0,0);" rx="1"/>
<text x="1002" y="372" style="font-family:sans-serif;font-size:10px;">
andExpr
</text>
<rect x="931.0" y="33.0" width="30.0" height="16.0" style="fill:orange; stroke:rgb(0,0,0);" rx="1"/>
<text x="933" y="42" style="font-family:sans-serif;font-size:10px;">
units
</text>
<rect x="817.0" y="99.0" width="34.0" height="16.0" style="fill:orange; stroke:rgb(0,0,0);" rx="1"/>
<text x="819" y="108" style="font-family:sans-serif;font-size:10px;">
begin
</text>
<rect x="39.5" y="33.0" width="22.0" height="16.0" style="fill:orange; stroke:rgb(0,0,0);" rx="1"/>
<text x="41" y="42" style="font-family:sans-serif;font-size:10px;">
libs
</text>
<rect x="121.0" y="99.0" width="25.0" height="16.0" style="fill:orange; stroke:rgb(0,0,0);" rx="1"/>
<text x="123" y="108" style="font-family:sans-serif;font-size:10px;">
ieee
</text>
<rect x="333.375" y="198.0" width="7.0" height="16.0" style="fill:orange; stroke:rgb(0,0,0);" rx="1"/>
<text x="335" y="207" style="font-family:sans-serif;font-size:10px;">
:
</text>
<rect x="1117.5" y="429.0" width="46.0" height="16.0" style="fill:orange; stroke:rgb(0,0,0);" rx="1"/>
<text x="1119" y="438" style="font-family:sans-serif;font-size:10px;">
notExpr
</text>
<rect x="724.5" y="132.0" width="7.0" height="16.0" style="fill:orange; stroke:rgb(0,0,0);" rx="1"/>
<text x="726" y="141" style="font-family:sans-serif;font-size:10px;">
,
</text>
<rect x="709.0" y="99.0" width="12.0" height="16.0" style="fill:orange; stroke:rgb(0,0,0);" rx="1"/>
<text x="711" y="108" style="font-family:sans-serif;font-size:10px;">
is
</text>
<rect x="525.0" y="99.0" width="67.0" height="16.0" style="fill:orange; stroke:rgb(0,0,0);" rx="1"/>
<text x="527" y="108" style="font-family:sans-serif;font-size:10px;">
architecture
</text>
<rect x="917.0" y="198.0" width="16.0" height="16.0" style="fill:orange; stroke:rgb(0,0,0);" rx="1"/>
<text x="919" y="207" style="font-family:sans-serif;font-size:10px;">
or
</text>
<rect x="919.5" y="66.0" width="53.0" height="16.0" style="fill:orange; stroke:rgb(0,0,0);" rx="1"/>
<text x="921" y="75" style="font-family:sans-serif;font-size:10px;">
arch_unit
</text>
<rect x="1061.5" y="297.0" width="7.0" height="16.0" style="fill:orange; stroke:rgb(0,0,0);" rx="1"/>
<text x="1063" y="306" style="font-family:sans-serif;font-size:10px;">
)
</text>
<rect x="1157.5" y="297.0" width="7.0" height="16.0" style="fill:orange; stroke:rgb(0,0,0);" rx="1"/>
<text x="1159" y="306" style="font-family:sans-serif;font-size:10px;">
)
</text>
<rect x="679.0" y="99.0" width="23.0" height="16.0" style="fill:orange; stroke:rgb(0,0,0);" rx="1"/>
<text x="681" y="108" style="font-family:sans-serif;font-size:10px;">
eq1
</text>
<rect x="187.25" y="33.0" width="22.0" height="16.0" style="fill:orange; stroke:rgb(0,0,0);" rx="1"/>
<text x="189" y="42" style="font-family:sans-serif;font-size:10px;">
libs
</text>
<rect x="400.0" y="132.0" width="47.0" height="16.0" style="fill:orange; stroke:rgb(0,0,0);" rx="1"/>
<text x="402" y="141" style="font-family:sans-serif;font-size:10px;">
port_list
</text>
<rect x="313.375" y="198.0" width="13.0" height="16.0" style="fill:orange; stroke:rgb(0,0,0);" rx="1"/>
<text x="315" y="207" style="font-family:sans-serif;font-size:10px;">
i1
</text>
<rect x="1041.5" y="132.0" width="61.0" height="16.0" style="fill:orange; stroke:rgb(0,0,0);" rx="1"/>
<text x="1043" y="141" style="font-family:sans-serif;font-size:10px;">
expression
</text>
<rect x="290.0" y="99.0" width="7.0" height="16.0" style="fill:orange; stroke:rgb(0,0,0);" rx="1"/>
<text x="292" y="108" style="font-family:sans-serif;font-size:10px;">
;
</text>
<rect x="304.0" y="99.0" width="34.0" height="16.0" style="fill:orange; stroke:rgb(0,0,0);" rx="1"/>
<text x="306" y="108" style="font-family:sans-serif;font-size:10px;">
entity
</text>
<rect x="453.125" y="165.0" width="73.0" height="16.0" style="fill:orange; stroke:rgb(0,0,0);" rx="1"/>
<text x="455" y="174" style="font-family:sans-serif;font-size:10px;">
in_out_signal
</text>
<rect x="599.0" y="99.0" width="51.0" height="16.0" style="fill:orange; stroke:rgb(0,0,0);" rx="1"/>
<text x="601" y="108" style="font-family:sans-serif;font-size:10px;">
sop_arch
</text>
<rect x="46.0" y="99.0" width="25.0" height="16.0" style="fill:orange; stroke:rgb(0,0,0);" rx="1"/>
<text x="48" y="108" style="font-family:sans-serif;font-size:10px;">
ieee
</text>
<rect x="1155.0" y="231.0" width="46.0" height="16.0" style="fill:orange; stroke:rgb(0,0,0);" rx="1"/>
<text x="1157" y="240" style="font-family:sans-serif;font-size:10px;">
notExpr
</text>
<rect x="1196.0" y="198.0" width="48.0" height="16.0" style="fill:orange; stroke:rgb(0,0,0);" rx="1"/>
<text x="1198" y="207" style="font-family:sans-serif;font-size:10px;">
andExpr
</text>
<rect x="941.0" y="231.0" width="46.0" height="16.0" style="fill:orange; stroke:rgb(0,0,0);" rx="1"/>
<text x="943" y="240" style="font-family:sans-serif;font-size:10px;">
notExpr
</text>
<rect x="1257.5" y="132.0" width="7.0" height="16.0" style="fill:orange; stroke:rgb(0,0,0);" rx="1"/>
<text x="1259" y="141" style="font-family:sans-serif;font-size:10px;">
;
</text>
<rect x="386.0" y="132.0" width="7.0" height="16.0" style="fill:orange; stroke:rgb(0,0,0);" rx="1"/>
<text x="388" y="141" style="font-family:sans-serif;font-size:10px;">
(
</text>
<rect x="352.0" y="132.0" width="27.0" height="16.0" style="fill:orange; stroke:rgb(0,0,0);" rx="1"/>
<text x="354" y="141" style="font-family:sans-serif;font-size:10px;">
port
</text>
<rect x="253.0" y="99.0" width="7.0" height="16.0" style="fill:orange; stroke:rgb(0,0,0);" rx="1"/>
<text x="255" y="108" style="font-family:sans-serif;font-size:10px;">
.
</text>
<rect x="167.0" y="99.0" width="79.0" height="16.0" style="fill:orange; stroke:rgb(0,0,0);" rx="1"/>
<text x="169" y="108" style="font-family:sans-serif;font-size:10px;">
std_logic_1164
</text>
<rect x="425.375" y="198.0" width="7.0" height="16.0" style="fill:orange; stroke:rgb(0,0,0);" rx="1"/>
<text x="427" y="207" style="font-family:sans-serif;font-size:10px;">
;
</text>
<rect x="347.375" y="198.0" width="14.0" height="16.0" style="fill:orange; stroke:rgb(0,0,0);" rx="1"/>
<text x="349" y="207" style="font-family:sans-serif;font-size:10px;">
in
</text>
<rect x="1097.0" y="396.0" width="46.0" height="16.0" style="fill:orange; stroke:rgb(0,0,0);" rx="1"/>
<text x="1099" y="405" style="font-family:sans-serif;font-size:10px;">
notExpr
</text>
<rect x="1096.0" y="363.0" width="48.0" height="16.0" style="fill:orange; stroke:rgb(0,0,0);" rx="1"/>
<text x="1098" y="372" style="font-family:sans-serif;font-size:10px;">
andExpr
</text>
<rect x="1208.0" y="231.0" width="24.0" height="16.0" style="fill:orange; stroke:rgb(0,0,0);" rx="1"/>
<text x="1210" y="240" style="font-family:sans-serif;font-size:10px;">
and
</text>
<rect x="0.0" y="99.0" width="39.0" height="16.0" style="fill:orange; stroke:rgb(0,0,0);" rx="1"/>
<text x="2" y="108" style="font-family:sans-serif;font-size:10px;">
library
</text>
<rect x="481.0" y="99.0" width="23.0" height="16.0" style="fill:orange; stroke:rgb(0,0,0);" rx="1"/>
<text x="483" y="108" style="font-family:sans-serif;font-size:10px;">
eq1
</text>
<rect x="1239.0" y="264.0" width="46.0" height="16.0" style="fill:orange; stroke:rgb(0,0,0);" rx="1"/>
<text x="1241" y="273" style="font-family:sans-serif;font-size:10px;">
primary
</text>
<rect x="463.375" y="198.0" width="7.0" height="16.0" style="fill:orange; stroke:rgb(0,0,0);" rx="1"/>
<text x="465" y="207" style="font-family:sans-serif;font-size:10px;">
:
</text>
<rect x="1001.0" y="264.0" width="46.0" height="16.0" style="fill:orange; stroke:rgb(0,0,0);" rx="1"/>
<text x="1003" y="273" style="font-family:sans-serif;font-size:10px;">
primary
</text>
<rect x="776.5" y="132.0" width="50.0" height="16.0" style="fill:orange; stroke:rgb(0,0,0);" rx="1"/>
<text x="778" y="141" style="font-family:sans-serif;font-size:10px;">
std_logic
</text>
<rect x="1018.5" y="132.0" width="16.0" height="16.0" style="fill:orange; stroke:rgb(0,0,0);" rx="1"/>
<text x="1020" y="141" style="font-family:sans-serif;font-size:10px;">
&lt;=
</text>
<rect x="477.375" y="198.0" width="22.0" height="16.0" style="fill:orange; stroke:rgb(0,0,0);" rx="1"/>
<text x="479" y="207" style="font-family:sans-serif;font-size:10px;">
out
</text>
<rect x="847.5" y="132.0" width="17.0" height="16.0" style="fill:orange; stroke:rgb(0,0,0);" rx="1"/>
<text x="849" y="141" style="font-family:sans-serif;font-size:10px;">
eq
</text>
<rect x="299.375" y="198.0" width="7.0" height="16.0" style="fill:orange; stroke:rgb(0,0,0);" rx="1"/>
<text x="301" y="207" style="font-family:sans-serif;font-size:10px;">
,
</text>
<rect x="155.25" y="66.0" width="86.0" height="16.0" style="fill:orange; stroke:rgb(0,0,0);" rx="1"/>
<text x="157" y="75" style="font-family:sans-serif;font-size:10px;">
use_declaration
</text>
<rect x="1004.0" y="330.0" width="40.0" height="16.0" style="fill:orange; stroke:rgb(0,0,0);" rx="1"/>
<text x="1006" y="339" style="font-family:sans-serif;font-size:10px;">
orExpr
</text>
<rect x="493.0" y="0.0" width="51.0" height="16.0" style="fill:orange; stroke:rgb(0,0,0);" rx="1"/>
<text x="495" y="9" style="font-family:sans-serif;font-size:10px;">
startRule
</text>
<rect x="1255.5" y="297.0" width="13.0" height="16.0" style="fill:orange; stroke:rgb(0,0,0);" rx="1"/>
<text x="1257" y="306" style="font-family:sans-serif;font-size:10px;">
i1
</text>
<rect x="762.5" y="132.0" width="7.0" height="16.0" style="fill:orange; stroke:rgb(0,0,0);" rx="1"/>
<text x="764" y="141" style="font-family:sans-serif;font-size:10px;">
:
</text>
<rect x="387.75" y="66.0" width="60.0" height="16.0" style="fill:orange; stroke:rgb(0,0,0);" rx="1"/>
<text x="389" y="75" style="font-family:sans-serif;font-size:10px;">
entity_unit
</text>
<rect x="863.0" y="264.0" width="46.0" height="16.0" style="fill:orange; stroke:rgb(0,0,0);" rx="1"/>
<text x="865" y="273" style="font-family:sans-serif;font-size:10px;">
primary
</text>
<rect x="468.0" y="132.0" width="7.0" height="16.0" style="fill:orange; stroke:rgb(0,0,0);" rx="1"/>
<text x="470" y="141" style="font-family:sans-serif;font-size:10px;">
;
</text>
<rect x="368.375" y="198.0" width="50.0" height="16.0" style="fill:orange; stroke:rgb(0,0,0);" rx="1"/>
<text x="370" y="207" style="font-family:sans-serif;font-size:10px;">
std_logic
</text>
<rect x="883.0" y="99.0" width="56.0" height="16.0" style="fill:orange; stroke:rgb(0,0,0);" rx="1"/>
<text x="885" y="108" style="font-family:sans-serif;font-size:10px;">
statement
</text>
<rect x="994.5" y="132.0" width="17.0" height="16.0" style="fill:orange; stroke:rgb(0,0,0);" rx="1"/>
<text x="996" y="141" style="font-family:sans-serif;font-size:10px;">
p0
</text>
<rect x="1089.5" y="297.0" width="61.0" height="16.0" style="fill:orange; stroke:rgb(0,0,0);" rx="1"/>
<text x="1091" y="306" style="font-family:sans-serif;font-size:10px;">
expression
</text>
<rect x="1100.0" y="330.0" width="40.0" height="16.0" style="fill:orange; stroke:rgb(0,0,0);" rx="1"/>
<text x="1102" y="339" style="font-family:sans-serif;font-size:10px;">
orExpr
</text>
<rect x="1075.5" y="297.0" width="7.0" height="16.0" style="fill:orange; stroke:rgb(0,0,0);" rx="1"/>
<text x="1077" y="306" style="font-family:sans-serif;font-size:10px;">
(
</text>
<rect x="279.375" y="198.0" width="13.0" height="16.0" style="fill:orange; stroke:rgb(0,0,0);" rx="1"/>
<text x="281" y="207" style="font-family:sans-serif;font-size:10px;">
i0
</text>
<rect x="1021.5" y="429.0" width="46.0" height="16.0" style="fill:orange; stroke:rgb(0,0,0);" rx="1"/>
<text x="1023" y="438" style="font-family:sans-serif;font-size:10px;">
notExpr
</text>
<rect x="1178.0" y="99.0" width="56.0" height="16.0" style="fill:orange; stroke:rgb(0,0,0);" rx="1"/>
<text x="1180" y="108" style="font-family:sans-serif;font-size:10px;">
statement
</text>
<rect x="1001.0" y="396.0" width="46.0" height="16.0" style="fill:orange; stroke:rgb(0,0,0);" rx="1"/>
<text x="1003" y="405" style="font-family:sans-serif;font-size:10px;">
notExpr
</text>
<rect x="511.0" y="99.0" width="7.0" height="16.0" style="fill:orange; stroke:rgb(0,0,0);" rx="1"/>
<text x="513" y="108" style="font-family:sans-serif;font-size:10px;">
;
</text>
<rect x="993.5" y="297.0" width="61.0" height="16.0" style="fill:orange; stroke:rgb(0,0,0);" rx="1"/>
<text x="995" y="306" style="font-family:sans-serif;font-size:10px;">
expression
</text>
<rect x="375.0" y="99.0" width="12.0" height="16.0" style="fill:orange; stroke:rgb(0,0,0);" rx="1"/>
<text x="377" y="108" style="font-family:sans-serif;font-size:10px;">
is
</text>
<rect x="1166.5" y="132.0" width="16.0" height="16.0" style="fill:orange; stroke:rgb(0,0,0);" rx="1"/>
<text x="1168" y="141" style="font-family:sans-serif;font-size:10px;">
&lt;=
</text>
<rect x="877.5" y="297.0" width="17.0" height="16.0" style="fill:orange; stroke:rgb(0,0,0);" rx="1"/>
<text x="879" y="306" style="font-family:sans-serif;font-size:10px;">
p0
</text>
<rect x="657.0" y="99.0" width="15.0" height="16.0" style="fill:orange; stroke:rgb(0,0,0);" rx="1"/>
<text x="659" y="108" style="font-family:sans-serif;font-size:10px;">
of
</text>
<rect x="1155.0" y="264.0" width="46.0" height="16.0" style="fill:orange; stroke:rgb(0,0,0);" rx="1"/>
<text x="1157" y="273" style="font-family:sans-serif;font-size:10px;">
primary
</text>
<rect x="833.5" y="132.0" width="7.0" height="16.0" style="fill:orange; stroke:rgb(0,0,0);" rx="1"/>
<text x="835" y="141" style="font-family:sans-serif;font-size:10px;">
;
</text>
<rect x="1048.0" y="198.0" width="48.0" height="16.0" style="fill:orange; stroke:rgb(0,0,0);" rx="1"/>
<text x="1050" y="207" style="font-family:sans-serif;font-size:10px;">
andExpr
</text>
<rect x="1134.0" y="495.0" width="13.0" height="16.0" style="fill:orange; stroke:rgb(0,0,0);" rx="1"/>
<text x="1136" y="504" style="font-family:sans-serif;font-size:10px;">
i1
</text>
<rect x="1241.0" y="99.0" width="24.0" height="16.0" style="fill:orange; stroke:rgb(0,0,0);" rx="1"/>
<text x="1243" y="108" style="font-family:sans-serif;font-size:10px;">
end
</text>
<rect x="345.0" y="99.0" width="23.0" height="16.0" style="fill:orange; stroke:rgb(0,0,0);" rx="1"/>
<text x="347" y="108" style="font-family:sans-serif;font-size:10px;">
eq1
</text>
<rect x="1030.0" y="99.0" width="56.0" height="16.0" style="fill:orange; stroke:rgb(0,0,0);" rx="1"/>
<text x="1032" y="108" style="font-family:sans-serif;font-size:10px;">
statement
</text>
<rect x="700.5" y="132.0" width="17.0" height="16.0" style="fill:orange; stroke:rgb(0,0,0);" rx="1"/>
<text x="702" y="141" style="font-family:sans-serif;font-size:10px;">
p0
</text>
<rect x="1001.0" y="231.0" width="46.0" height="16.0" style="fill:orange; stroke:rgb(0,0,0);" rx="1"/>
<text x="1003" y="240" style="font-family:sans-serif;font-size:10px;">
notExpr
</text>
<rect x="267.0" y="99.0" width="16.0" height="16.0" style="fill:orange; stroke:rgb(0,0,0);" rx="1"/>
<text x="269" y="108" style="font-family:sans-serif;font-size:10px;">
all
</text>
<rect x="450.0" y="99.0" width="24.0" height="16.0" style="fill:orange; stroke:rgb(0,0,0);" rx="1"/>
<text x="452" y="108" style="font-family:sans-serif;font-size:10px;">
end
</text>
<rect x="506.375" y="198.0" width="50.0" height="16.0" style="fill:orange; stroke:rgb(0,0,0);" rx="1"/>
<text x="508" y="207" style="font-family:sans-serif;font-size:10px;">
std_logic
</text>
<rect x="402.75" y="33.0" width="30.0" height="16.0" style="fill:orange; stroke:rgb(0,0,0);" rx="1"/>
<text x="404" y="42" style="font-family:sans-serif;font-size:10px;">
units
</text>
<rect x="1272.0" y="99.0" width="51.0" height="16.0" style="fill:orange; stroke:rgb(0,0,0);" rx="1"/>
<text x="1274" y="108" style="font-family:sans-serif;font-size:10px;">
sop_arch
</text>
<rect x="1038.0" y="495.0" width="13.0" height="16.0" style="fill:orange; stroke:rgb(0,0,0);" rx="1"/>
<text x="1040" y="504" style="font-family:sans-serif;font-size:10px;">
i0
</text>
<rect x="1330.0" y="99.0" width="7.0" height="16.0" style="fill:orange; stroke:rgb(0,0,0);" rx="1"/>
<text x="1332" y="108" style="font-family:sans-serif;font-size:10px;">
;
</text>
<rect x="1117.5" y="462.0" width="46.0" height="16.0" style="fill:orange; stroke:rgb(0,0,0);" rx="1"/>
<text x="1119" y="471" style="font-family:sans-serif;font-size:10px;">
primary
</text>
<rect x="78.0" y="99.0" width="7.0" height="16.0" style="fill:orange; stroke:rgb(0,0,0);" rx="1"/>
<text x="80" y="108" style="font-family:sans-serif;font-size:10px;">
;
</text>
<rect x="992.5" y="429.0" width="22.0" height="16.0" style="fill:orange; stroke:rgb(0,0,0);" rx="1"/>
<text x="994" y="438" style="font-family:sans-serif;font-size:10px;">
not
</text>
<rect x="979.5" y="297.0" width="7.0" height="16.0" style="fill:orange; stroke:rgb(0,0,0);" rx="1"/>
<text x="981" y="306" style="font-family:sans-serif;font-size:10px;">
(
</text>
<rect x="1097.0" y="231.0" width="46.0" height="16.0" style="fill:orange; stroke:rgb(0,0,0);" rx="1"/>
<text x="1099" y="240" style="font-family:sans-serif;font-size:10px;">
notExpr
</text>
<rect x="728.0" y="99.0" width="57.0" height="16.0" style="fill:orange; stroke:rgb(0,0,0);" rx="1"/>
<text x="730" y="108" style="font-family:sans-serif;font-size:10px;">
signal_obj
</text>
<rect x="1060.0" y="231.0" width="24.0" height="16.0" style="fill:orange; stroke:rgb(0,0,0);" rx="1"/>
<text x="1062" y="240" style="font-family:sans-serif;font-size:10px;">
and
</text>
<rect x="968.0" y="33.0" width="37.0" height="16.0" style="fill:orange; stroke:rgb(0,0,0);" rx="1"/>
<text x="970" y="42" style="font-family:sans-serif;font-size:10px;">
&lt;EOF&gt;
</text>
<rect x="955.5" y="297.0" width="17.0" height="16.0" style="fill:orange; stroke:rgb(0,0,0);" rx="1"/>
<text x="957" y="306" style="font-family:sans-serif;font-size:10px;">
p1
</text>
<rect x="1021.5" y="462.0" width="46.0" height="16.0" style="fill:orange; stroke:rgb(0,0,0);" rx="1"/>
<text x="1023" y="471" style="font-family:sans-serif;font-size:10px;">
primary
</text>
<rect x="1088.5" y="429.0" width="22.0" height="16.0" style="fill:orange; stroke:rgb(0,0,0);" rx="1"/>
<text x="1090" y="438" style="font-family:sans-serif;font-size:10px;">
not
</text>
<rect x="1052.0" y="165.0" width="40.0" height="16.0" style="fill:orange; stroke:rgb(0,0,0);" rx="1"/>
<text x="1054" y="174" style="font-family:sans-serif;font-size:10px;">
orExpr
</text>
<rect x="905.0" y="165.0" width="40.0" height="16.0" style="fill:orange; stroke:rgb(0,0,0);" rx="1"/>
<text x="907" y="174" style="font-family:sans-serif;font-size:10px;">
orExpr
</text>
<rect x="1142.5" y="132.0" width="17.0" height="16.0" style="fill:orange; stroke:rgb(0,0,0);" rx="1"/>
<text x="1144" y="141" style="font-family:sans-serif;font-size:10px;">
p1
</text>
<rect x="1200.0" y="165.0" width="40.0" height="16.0" style="fill:orange; stroke:rgb(0,0,0);" rx="1"/>
<text x="1202" y="174" style="font-family:sans-serif;font-size:10px;">
orExpr
</text>
<rect x="394.0" y="99.0" width="49.0" height="16.0" style="fill:orange; stroke:rgb(0,0,0);" rx="1"/>
<text x="396" y="108" style="font-family:sans-serif;font-size:10px;">
port_obj
</text>
<rect x="962.5" y="132.0" width="7.0" height="16.0" style="fill:orange; stroke:rgb(0,0,0);" rx="1"/>
<text x="964" y="141" style="font-family:sans-serif;font-size:10px;">
;
</text>
<rect x="454.0" y="132.0" width="7.0" height="16.0" style="fill:orange; stroke:rgb(0,0,0);" rx="1"/>
<text x="456" y="141" style="font-family:sans-serif;font-size:10px;">
)
</text>
</svg>