<?plantuml 1.2026.2?><svg xmlns="http://www.w3.org/2000/svg" xmlns:xlink="http://www.w3.org/1999/xlink" contentStyleType="text/css" data-diagram-type="MINDMAP" height="189px" preserveAspectRatio="none" style="width:165px;height:189px;background:#FFFFFF;" version="1.1" viewBox="0 0 165 189" width="165px" zoomAndPan="magnify"><defs/><g><rect fill="#FFFFFF" height="39.0679" rx="12.5" ry="12.5" style="stroke:#FFFFFF;stroke-width:1.5;" width="36.0159" x="63.5624" y="10"/><text fill="#000000" font-family="sans-serif" font-size="14" lengthAdjust="spacing" textLength="16.0159" x="73.5624" y="34.9659">&lt;=</text><rect fill="#FFFFFF" height="39.0679" rx="12.5" ry="12.5" style="stroke:#FFFFFF;stroke-width:1.5;" width="36.6179" x="20" y="74.0679"/><text fill="#000000" font-family="sans-serif" font-size="14" lengthAdjust="spacing" textLength="16.6179" x="30" y="99.0339">p1</text><path d="M81.5704,49.0679 L81.5704,52.0679 C81.5704,59.0679 38.309,64.0679 38.309,71.0679 L38.309,74.0679" fill="none" style="stroke:#181818;stroke-width:1;"/><rect fill="#FFFFFF" height="39.0679" rx="12.5" ry="12.5" style="stroke:#FFFFFF;stroke-width:1.5;" width="49.8059" x="76.6179" y="74.0679"/><text fill="#000000" font-family="sans-serif" font-size="14" lengthAdjust="spacing" textLength="29.8059" x="86.6179" y="99.0339">AND</text><rect fill="#FFFFFF" height="39.0679" rx="12.5" ry="12.5" style="stroke:#FFFFFF;stroke-width:1.5;" width="31.6199" x="59.9009" y="138.1358"/><text fill="#000000" font-family="sans-serif" font-size="14" lengthAdjust="spacing" textLength="11.6199" x="69.9009" y="163.1018">i0</text><path d="M101.5209,113.1358 L101.5209,116.1358 C101.5209,123.1358 75.7109,128.1358 75.7109,135.1358 L75.7109,138.1358" fill="none" style="stroke:#181818;stroke-width:1;"/><rect fill="#FFFFFF" height="39.0679" rx="12.5" ry="12.5" style="stroke:#FFFFFF;stroke-width:1.5;" width="31.6199" x="111.5209" y="138.1358"/><text fill="#000000" font-family="sans-serif" font-size="14" lengthAdjust="spacing" textLength="11.6199" x="121.5209" y="163.1018">i1</text><path d="M101.5209,113.1358 L101.5209,116.1358 C101.5209,123.1358 127.3308,128.1358 127.3308,135.1358 L127.3308,138.1358" fill="none" style="stroke:#181818;stroke-width:1;"/><path d="M81.5704,49.0679 L81.5704,52.0679 C81.5704,59.0679 101.5209,64.0679 101.5209,71.0679 L101.5209,74.0679" fill="none" style="stroke:#181818;stroke-width:1;"/><?plantuml-src JOwz3i8m38HtFuNd3ANDm1HG-HaHxn0Q2ooQE4gD44AyEm4wSCDzqfrEkdvINpHo2j5dKCceWYTHbOY12mtAai1D-XXf3Ka2uHEmwi29TZ9AmVk5bRxPrW_NSv5R2l_D2znYtXjqAp06S_VnpN5VOP3R7phegVwOlq3NsDOk6_i6?></g></svg>