<svg xmlns="http://www.w3.org/2000/svg" xmlns:xlink="http://www.w3.org/1999/xlink" contentStyleType="text/css" data-diagram-type="MINDMAP" height="242px" preserveAspectRatio="none" style="width:266px;height:242px;background:#FFFFFF;" version="1.1" viewBox="0 0 266 242" width="266px" zoomAndPan="magnify"><defs/><g><rect fill="#FFFFFF" height="36.2969" rx="12.5" ry="12.5" style="stroke:#FFFFFF;stroke-width:1.5;" width="31.7305" x="116.2236" y="10"/><text fill="#000000" font-family="sans-serif" font-size="14" lengthAdjust="spacing" textLength="11.7305" x="126.2236" y="32.9951">+</text><rect fill="#FFFFFF" height="36.2969" rx="12.5" ry="12.5" style="stroke:#FFFFFF;stroke-width:1.5;" width="53.9951" x="45.7354" y="71.2969"/><text fill="#000000" font-family="sans-serif" font-size="14" lengthAdjust="spacing" textLength="33.9951" x="55.7354" y="94.292">+1.2</text><path d="M132.0889,46.2969 L132.0889,49.2969 C132.0889,56.2969 72.7329,61.2969 72.7329,68.2969 L72.7329,71.2969" fill="none" style="stroke:#181818;stroke-width:1;"/><rect fill="#FFFFFF" height="36.2969" rx="12.5" ry="12.5" style="stroke:#FFFFFF;stroke-width:1.5;" width="24.7168" x="119.7305" y="71.2969"/><text fill="#000000" font-family="sans-serif" font-size="14" lengthAdjust="spacing" textLength="4.7168" x="129.7305" y="94.292">/</text><rect fill="#FFFFFF" height="36.2969" rx="12.5" ry="12.5" style="stroke:#FFFFFF;stroke-width:1.5;" width="27" x="67.1558" y="132.5938"/><text fill="#000000" font-family="sans-serif" font-size="14" lengthAdjust="spacing" textLength="7" x="77.1558" y="155.5889">*</text><rect fill="#FFFFFF" height="36.2969" rx="12.5" ry="12.5" style="stroke:#FFFFFF;stroke-width:1.5;" width="47.3164" x="20" y="193.8906"/><text fill="#000000" font-family="sans-serif" font-size="14" lengthAdjust="spacing" textLength="27.3164" x="30" y="216.8857">-3.5</text><path d="M80.6558,168.8906 L80.6558,171.8906 C80.6558,178.8906 43.6582,183.8906 43.6582,190.8906 L43.6582,193.8906" fill="none" style="stroke:#181818;stroke-width:1;"/><rect fill="#FFFFFF" height="36.2969" rx="12.5" ry="12.5" style="stroke:#FFFFFF;stroke-width:1.5;" width="53.9951" x="87.3164" y="193.8906"/><text fill="#000000" font-family="sans-serif" font-size="14" lengthAdjust="spacing" textLength="33.9951" x="97.3164" y="216.8857">+6.7</text><path d="M80.6558,168.8906 L80.6558,171.8906 C80.6558,178.8906 114.314,183.8906 114.314,190.8906 L114.314,193.8906" fill="none" style="stroke:#181818;stroke-width:1;"/><path d="M132.0889,107.5938 L132.0889,110.5938 C132.0889,117.5938 80.6558,122.5938 80.6558,129.5938 L80.6558,132.5938" fill="none" style="stroke:#181818;stroke-width:1;"/><rect fill="#FFFFFF" height="36.2969" rx="12.5" ry="12.5" style="stroke:#FFFFFF;stroke-width:1.5;" width="25.0518" x="190.2188" y="132.5938"/><text fill="#000000" font-family="sans-serif" font-size="14" lengthAdjust="spacing" textLength="5.0518" x="200.2188" y="155.5889">-</text><rect fill="#FFFFFF" height="36.2969" rx="12.5" ry="12.5" style="stroke:#FFFFFF;stroke-width:1.5;" width="33.959" x="161.3115" y="193.8906"/><text fill="#000000" font-family="sans-serif" font-size="14" lengthAdjust="spacing" textLength="13.959" x="171.3115" y="216.8857">-8</text><path d="M202.7446,168.8906 L202.7446,171.8906 C202.7446,178.8906 178.291,183.8906 178.291,190.8906 L178.291,193.8906" fill="none" style="stroke:#181818;stroke-width:1;"/><rect fill="#FFFFFF" height="36.2969" rx="12.5" ry="12.5" style="stroke:#FFFFFF;stroke-width:1.5;" width="28.9072" x="215.2705" y="193.8906"/><text fill="#000000" font-family="sans-serif" font-size="14" lengthAdjust="spacing" textLength="8.9072" x="225.2705" y="216.8857">9</text><path d="M202.7446,168.8906 L202.7446,171.8906 C202.7446,178.8906 229.7241,183.8906 229.7241,190.8906 L229.7241,193.8906" fill="none" style="stroke:#181818;stroke-width:1;"/><path d="M132.0889,107.5938 L132.0889,110.5938 C132.0889,117.5938 202.7446,122.5938 202.7446,129.5938 L202.7446,132.5938" fill="none" style="stroke:#181818;stroke-width:1;"/><path d="M132.0889,46.2969 L132.0889,49.2969 C132.0889,56.2969 132.0889,61.2969 132.0889,68.2969 L132.0889,71.2969" fill="none" style="stroke:#181818;stroke-width:1;"/><!--SRC=[JP1RRy8m38NVyoly24MKsoYiGXEYi4bTqT2ul8VMwwAr3agTJcZQVryAJ5iUZYD_iNLEvXLBmwMYh9GdmVe4hE6ecNK9cJAOij8aPXMV2tmGf3E4Bm7k98emqeKsyFck62-zXKm_SgCjPV_9jvZrRlCUT8JdPE0Fczfpue7Ng0VTaJ- -tZg1FxcGxerCh_LUpD7vl7aLcq8IxzS9r6WgvnBSrlvmx0zREuiGIuB-10RJS3GEHm54gnqqk2rQJvi4AcrDYYvYnKOTRPEoBM9PItYrnAh445vEIF7o-RS1AwgLqLGYiOWFwxy7mLrteHYsQ9mJEAp54j-aBTXDf3fJb8Umtpsw58catChSxKOIaVidDcV7jZy0]--></g></svg>