<svg xmlns="http://www.w3.org/2000/svg" xmlns:xlink="http://www.w3.org/1999/xlink" contentStyleType="text/css" data-diagram-type="MINDMAP" height="242px" preserveAspectRatio="none" style="width:244px;height:242px;background:#FFFFFF;" version="1.1" viewBox="0 0 244 242" width="244px" zoomAndPan="magnify"><defs/><g><rect fill="#FFFFFF" height="36.2969" rx="12.5" ry="12.5" style="stroke:#FFFFFF;stroke-width:1.5;" width="31.7305" x="105.3066" y="10"/><text fill="#000000" font-family="sans-serif" font-size="14" lengthAdjust="spacing" textLength="11.7305" x="115.3066" y="32.9951">+</text><rect fill="#FFFFFF" height="36.2969" rx="12.5" ry="12.5" style="stroke:#FFFFFF;stroke-width:1.5;" width="42.2646" x="46.5488" y="71.2969"/><text fill="#000000" font-family="sans-serif" font-size="14" lengthAdjust="spacing" textLength="22.2646" x="56.5488" y="94.292">1.2</text><path d="M121.1719,46.2969 L121.1719,49.2969 C121.1719,56.2969 67.6812,61.2969 67.6812,68.2969 L67.6812,71.2969" fill="none" style="stroke:#181818;stroke-width:1;"/><rect fill="#FFFFFF" height="36.2969" rx="12.5" ry="12.5" style="stroke:#FFFFFF;stroke-width:1.5;" width="24.7168" x="108.8135" y="71.2969"/><text fill="#000000" font-family="sans-serif" font-size="14" lengthAdjust="spacing" textLength="4.7168" x="118.8135" y="94.292">/</text><rect fill="#FFFFFF" height="36.2969" rx="12.5" ry="12.5" style="stroke:#FFFFFF;stroke-width:1.5;" width="27" x="58.7646" y="132.5938"/><text fill="#000000" font-family="sans-serif" font-size="14" lengthAdjust="spacing" textLength="7" x="68.7646" y="155.5889">*</text><rect fill="#FFFFFF" height="36.2969" rx="12.5" ry="12.5" style="stroke:#FFFFFF;stroke-width:1.5;" width="42.2646" x="20" y="193.8906"/><text fill="#000000" font-family="sans-serif" font-size="14" lengthAdjust="spacing" textLength="22.2646" x="30" y="216.8857">3.5</text><path d="M72.2646,168.8906 L72.2646,171.8906 C72.2646,178.8906 41.1323,183.8906 41.1323,190.8906 L41.1323,193.8906" fill="none" style="stroke:#181818;stroke-width:1;"/><rect fill="#FFFFFF" height="36.2969" rx="12.5" ry="12.5" style="stroke:#FFFFFF;stroke-width:1.5;" width="42.2646" x="82.2646" y="193.8906"/><text fill="#000000" font-family="sans-serif" font-size="14" lengthAdjust="spacing" textLength="22.2646" x="92.2646" y="216.8857">6.7</text><path d="M72.2646,168.8906 L72.2646,171.8906 C72.2646,178.8906 103.397,183.8906 103.397,190.8906 L103.397,193.8906" fill="none" style="stroke:#181818;stroke-width:1;"/><path d="M121.1719,107.5938 L121.1719,110.5938 C121.1719,117.5938 72.2646,122.5938 72.2646,129.5938 L72.2646,132.5938" fill="none" style="stroke:#181818;stroke-width:1;"/><rect fill="#FFFFFF" height="36.2969" rx="12.5" ry="12.5" style="stroke:#FFFFFF;stroke-width:1.5;" width="25.0518" x="170.9106" y="132.5938"/><text fill="#000000" font-family="sans-serif" font-size="14" lengthAdjust="spacing" textLength="5.0518" x="180.9106" y="155.5889">-</text><rect fill="#FFFFFF" height="36.2969" rx="12.5" ry="12.5" style="stroke:#FFFFFF;stroke-width:1.5;" width="28.9072" x="144.5293" y="193.8906"/><text fill="#000000" font-family="sans-serif" font-size="14" lengthAdjust="spacing" textLength="8.9072" x="154.5293" y="216.8857">8</text><path d="M183.4365,168.8906 L183.4365,171.8906 C183.4365,178.8906 158.9829,183.8906 158.9829,190.8906 L158.9829,193.8906" fill="none" style="stroke:#181818;stroke-width:1;"/><rect fill="#FFFFFF" height="36.2969" rx="12.5" ry="12.5" style="stroke:#FFFFFF;stroke-width:1.5;" width="28.9072" x="193.4365" y="193.8906"/><text fill="#000000" font-family="sans-serif" font-size="14" lengthAdjust="spacing" textLength="8.9072" x="203.4365" y="216.8857">9</text><path d="M183.4365,168.8906 L183.4365,171.8906 C183.4365,178.8906 207.8901,183.8906 207.8901,190.8906 L207.8901,193.8906" fill="none" style="stroke:#181818;stroke-width:1;"/><path d="M121.1719,107.5938 L121.1719,110.5938 C121.1719,117.5938 183.4365,122.5938 183.4365,129.5938 L183.4365,132.5938" fill="none" style="stroke:#181818;stroke-width:1;"/><path d="M121.1719,46.2969 L121.1719,49.2969 C121.1719,56.2969 121.1719,61.2969 121.1719,68.2969 L121.1719,71.2969" fill="none" style="stroke:#181818;stroke-width:1;"/><!--SRC=[JL39JiD03BtxAtniWvfkT26gKDK5f92AYYxtQMB2YCHJJJn52F7lJDeYyC7BUxRrx6aboagfEIlL4SGSKGmUZ8WfCTEMKj66OLB9Pq7tm2OZ_0BqbcYckIcCnOytBNJ6PYfzpwrndFrdlc7Iliu7U0D1WDsmLuUsTm46jG-m7mukoJ0SdV7MfHnVmXrCoMkyweHreLXsgmHFP2kli5xPwGt2NcFh26F5s1bXTnpr1r5_YFFb5ckw2Ot7TOALSJObVrubLXzSVM4JOdLI-E9OT4aHFX-9uyNJBu1BFcbhk2GMYFUhluRXRMkc1JTalHBShs11hyeLuYTIasdE8znj7rfZI1JdJkL-Dp7C_O_4VdfkymC0]--></g></svg>