<svg width="1012.0000000000001" height="767.8000000000001" xmlns="http://www.w3.org/2000/svg" xmlns:xlink="http://www.w3.org/1999/xlink"><line x1="52.25" y1="7.5" x2="22.5" y2="32.0" style="stroke:black; stroke-width:1px;" />
<line x1="22.5" y1="39.5" x2="22.5" y2="64.0" style="stroke:black; stroke-width:1px;" />
<line x1="22.5" y1="71.5" x2="22.5" y2="96.0" style="stroke:black; stroke-width:1px;" />
<line x1="22.5" y1="103.5" x2="22.5" y2="128.0" style="stroke:black; stroke-width:1px;" />
<line x1="22.5" y1="135.5" x2="22.5" y2="160.0" style="stroke:black; stroke-width:1px;" />
<line x1="52.25" y1="7.5" x2="47.5" y2="32.0" style="stroke:black; stroke-width:1px;" />
<line x1="52.25" y1="7.5" x2="82.0" y2="32.0" style="stroke:black; stroke-width:1px;" />
<line x1="82.0" y1="39.5" x2="82.0" y2="64.0" style="stroke:black; stroke-width:1px;" />
<line x1="82.0" y1="71.5" x2="82.0" y2="96.0" style="stroke:black; stroke-width:1px;" />
<line x1="82.0" y1="103.5" x2="82.0" y2="128.0" style="stroke:black; stroke-width:1px;" />
<rect x="42.5" y="32.0" width="10.0" height="15.0" style="fill:yellow; stroke:white;" rx="1"/>
<text x="44" y="41" style="font-family:sans-serif;font-size:10px;">
+
</text>
<rect x="67.0" y="96.0" width="30.0" height="15.0" style="fill:white; stroke:white;" rx="1"/>
<text x="69" y="105" style="font-family:sans-serif;font-size:10px;">
value
</text>
<rect x="2.5" y="96.0" width="40.0" height="15.0" style="fill:white; stroke:white;" rx="1"/>
<text x="4" y="105" style="font-family:sans-serif;font-size:10px;">
primary
</text>
<rect x="13.0" y="160.0" width="19.0" height="15.0" style="fill:yellow; stroke:white;" rx="1"/>
<text x="15" y="169" style="font-family:sans-serif;font-size:10px;">
1.2
</text>
<rect x="7.5" y="128.0" width="30.0" height="15.0" style="fill:white; stroke:white;" rx="1"/>
<text x="9" y="137" style="font-family:sans-serif;font-size:10px;">
value
</text>
<rect x="69.5" y="128.0" width="25.0" height="15.0" style="fill:yellow; stroke:white;" rx="1"/>
<text x="71" y="137" style="font-family:sans-serif;font-size:10px;">
34.5
</text>
<rect x="39.25" y="0.0" width="26.0" height="15.0" style="fill:white; stroke:white;" rx="1"/>
<text x="41" y="9" style="font-family:sans-serif;font-size:10px;">
expr
</text>
<rect x="59.5" y="32.0" width="45.0" height="15.0" style="fill:white; stroke:white;" rx="1"/>
<text x="61" y="41" style="font-family:sans-serif;font-size:10px;">
multExpr
</text>
<rect x="62.0" y="64.0" width="40.0" height="15.0" style="fill:white; stroke:white;" rx="1"/>
<text x="64" y="73" style="font-family:sans-serif;font-size:10px;">
primary
</text>
<rect x="0.0" y="64.0" width="45.0" height="15.0" style="fill:white; stroke:white;" rx="1"/>
<text x="2" y="73" style="font-family:sans-serif;font-size:10px;">
multExpr
</text>
<rect x="9.5" y="32.0" width="26.0" height="15.0" style="fill:white; stroke:white;" rx="1"/>
<text x="11" y="41" style="font-family:sans-serif;font-size:10px;">
expr
</text>
</svg>