<svg width="1265.0" height="979.0000000000001" xmlns="http://www.w3.org/2000/svg" xmlns:xlink="http://www.w3.org/1999/xlink"><line x1="116.75" y1="7.0" x2="27.0" y2="31.0" style="stroke:black; stroke-width:1px;" />
<line x1="27.0" y1="38.0" x2="27.0" y2="62.0" style="stroke:black; stroke-width:1px;" />
<line x1="27.0" y1="69.0" x2="27.0" y2="93.0" style="stroke:black; stroke-width:1px;" />
<line x1="27.0" y1="100.0" x2="27.0" y2="124.0" style="stroke:black; stroke-width:1px;" />
<line x1="27.0" y1="131.0" x2="27.0" y2="155.0" style="stroke:black; stroke-width:1px;" />
<line x1="116.75" y1="7.0" x2="59.5" y2="31.0" style="stroke:black; stroke-width:1px;" />
<line x1="116.75" y1="7.0" x2="95.5" y2="31.0" style="stroke:black; stroke-width:1px;" />
<line x1="116.75" y1="7.0" x2="127.0" y2="31.0" style="stroke:black; stroke-width:1px;" />
<line x1="116.75" y1="7.0" x2="144.5" y2="31.0" style="stroke:black; stroke-width:1px;" />
<line x1="116.75" y1="7.0" x2="160.5" y2="31.0" style="stroke:black; stroke-width:1px;" />
<line x1="116.75" y1="7.0" x2="176.5" y2="31.0" style="stroke:black; stroke-width:1px;" />
<line x1="116.75" y1="7.0" x2="191.5" y2="31.0" style="stroke:black; stroke-width:1px;" />
<line x1="116.75" y1="7.0" x2="206.5" y2="31.0" style="stroke:black; stroke-width:1px;" />
<rect x="172.5" y="31.0" width="8.0" height="14.0" style="fill:rgb(255, 179, 179); stroke:white;" rx="1"/>
<text x="174" y="40" style="font-family:sans-serif;font-size:10px;">
/
</text>
<rect x="77.5" y="31.0" width="36.0" height="14.0" style="fill:rgb(255, 179, 179); stroke:white;" rx="1"/>
<text x="79" y="40" style="font-family:sans-serif;font-size:10px;">
45.67
</text>
<rect x="0.0" y="62.0" width="54.0" height="14.0" style="fill:white; stroke:white;" rx="1"/>
<text x="2" y="71" style="font-family:sans-serif;font-size:10px;">
multExpr
</text>
<rect x="10.0" y="124.0" width="34.0" height="14.0" style="fill:white; stroke:white;" rx="1"/>
<text x="12" y="133" style="font-family:sans-serif;font-size:10px;">
value
</text>
<rect x="101.25" y="0.0" width="31.0" height="14.0" style="fill:white; stroke:white;" rx="1"/>
<text x="103" y="9" style="font-family:sans-serif;font-size:10px;">
start
</text>
<rect x="12.5" y="31.0" width="29.0" height="14.0" style="fill:white; stroke:white;" rx="1"/>
<text x="14" y="40" style="font-family:sans-serif;font-size:10px;">
expr
</text>
<rect x="48.5" y="31.0" width="22.0" height="14.0" style="fill:rgb(255, 179, 179); stroke:white;" rx="1"/>
<text x="50" y="40" style="font-family:sans-serif;font-size:10px;">
2.3
</text>
<rect x="21.5" y="155.0" width="11.0" height="14.0" style="fill:yellow; stroke:white;" rx="1"/>
<text x="23" y="164" style="font-family:sans-serif;font-size:10px;">
1
</text>
<rect x="140.5" y="31.0" width="8.0" height="14.0" style="fill:rgb(255, 179, 179); stroke:white;" rx="1"/>
<text x="142" y="40" style="font-family:sans-serif;font-size:10px;">
-
</text>
<rect x="120.5" y="31.0" width="13.0" height="14.0" style="fill:rgb(255, 179, 179); stroke:white;" rx="1"/>
<text x="122" y="40" style="font-family:sans-serif;font-size:10px;">
+
</text>
<rect x="202.5" y="31.0" width="8.0" height="14.0" style="fill:rgb(255, 179, 179); stroke:white;" rx="1"/>
<text x="204" y="40" style="font-family:sans-serif;font-size:10px;">
)
</text>
<rect x="3.0" y="93.0" width="48.0" height="14.0" style="fill:white; stroke:white;" rx="1"/>
<text x="5" y="102" style="font-family:sans-serif;font-size:10px;">
primary
</text>
<rect x="155.5" y="31.0" width="10.0" height="14.0" style="fill:rgb(255, 179, 179); stroke:white;" rx="1"/>
<text x="157" y="40" style="font-family:sans-serif;font-size:10px;">
*
</text>
<rect x="187.5" y="31.0" width="8.0" height="14.0" style="fill:rgb(255, 179, 179); stroke:white;" rx="1"/>
<text x="189" y="40" style="font-family:sans-serif;font-size:10px;">
(
</text>
</svg>