<svg width="1012.0000000000001" height="767.8000000000001" xmlns="http://www.w3.org/2000/svg" xmlns:xlink="http://www.w3.org/1999/xlink"><line x1="88.375" y1="7.5" x2="22.5" y2="32.0" style="stroke:black; stroke-width:1px;" />
<line x1="22.5" y1="39.5" x2="22.5" y2="64.0" style="stroke:black; stroke-width:1px;" />
<line x1="22.5" y1="71.5" x2="22.5" y2="96.0" style="stroke:black; stroke-width:1px;" />
<line x1="22.5" y1="103.5" x2="22.5" y2="128.0" style="stroke:black; stroke-width:1px;" />
<line x1="22.5" y1="135.5" x2="22.5" y2="160.0" style="stroke:black; stroke-width:1px;" />
<line x1="88.375" y1="7.5" x2="83.625" y2="32.0" style="stroke:black; stroke-width:1px;" />
<line x1="88.375" y1="7.5" x2="154.25" y2="32.0" style="stroke:black; stroke-width:1px;" />
<line x1="154.25" y1="39.5" x2="104.25" y2="64.0" style="stroke:black; stroke-width:1px;" />
<line x1="104.25" y1="71.5" x2="72.0" y2="96.0" style="stroke:black; stroke-width:1px;" />
<line x1="72.0" y1="103.5" x2="72.0" y2="128.0" style="stroke:black; stroke-width:1px;" />
<line x1="72.0" y1="135.5" x2="72.0" y2="160.0" style="stroke:black; stroke-width:1px;" />
<line x1="72.0" y1="167.5" x2="72.0" y2="192.0" style="stroke:black; stroke-width:1px;" />
<line x1="104.25" y1="71.5" x2="105.5" y2="96.0" style="stroke:black; stroke-width:1px;" />
<line x1="104.25" y1="71.5" x2="136.5" y2="96.0" style="stroke:black; stroke-width:1px;" />
<line x1="136.5" y1="103.5" x2="136.5" y2="128.0" style="stroke:black; stroke-width:1px;" />
<line x1="136.5" y1="135.5" x2="136.5" y2="160.0" style="stroke:black; stroke-width:1px;" />
<line x1="154.25" y1="39.5" x2="155.5" y2="64.0" style="stroke:black; stroke-width:1px;" />
<line x1="154.25" y1="39.5" x2="204.25" y2="64.0" style="stroke:black; stroke-width:1px;" />
<line x1="204.25" y1="71.5" x2="180.25" y2="96.0" style="stroke:black; stroke-width:1px;" />
<line x1="204.25" y1="71.5" x2="204.25" y2="96.0" style="stroke:black; stroke-width:1px;" />
<line x1="204.25" y1="103.5" x2="175.5" y2="128.0" style="stroke:black; stroke-width:1px;" />
<line x1="175.5" y1="135.5" x2="175.5" y2="160.0" style="stroke:black; stroke-width:1px;" />
<line x1="175.5" y1="167.5" x2="175.5" y2="192.0" style="stroke:black; stroke-width:1px;" />
<line x1="175.5" y1="199.5" x2="175.5" y2="224.0" style="stroke:black; stroke-width:1px;" />
<line x1="175.5" y1="231.5" x2="175.5" y2="256.0" style="stroke:black; stroke-width:1px;" />
<line x1="204.25" y1="103.5" x2="199.5" y2="128.0" style="stroke:black; stroke-width:1px;" />
<line x1="204.25" y1="103.5" x2="233.0" y2="128.0" style="stroke:black; stroke-width:1px;" />
<line x1="233.0" y1="135.5" x2="233.0" y2="160.0" style="stroke:black; stroke-width:1px;" />
<line x1="233.0" y1="167.5" x2="233.0" y2="192.0" style="stroke:black; stroke-width:1px;" />
<line x1="233.0" y1="199.5" x2="233.0" y2="224.0" style="stroke:black; stroke-width:1px;" />
<line x1="204.25" y1="71.5" x2="228.25" y2="96.0" style="stroke:black; stroke-width:1px;" />
<rect x="160.5" y="224.0" width="30.0" height="15.0" style="fill:white; stroke:white;" rx="1"/>
<text x="162" y="233" style="font-family:sans-serif;font-size:10px;">
value
</text>
<rect x="57.0" y="160.0" width="30.0" height="15.0" style="fill:white; stroke:white;" rx="1"/>
<text x="59" y="169" style="font-family:sans-serif;font-size:10px;">
value
</text>
<rect x="127.0" y="160.0" width="19.0" height="15.0" style="fill:yellow; stroke:white;" rx="1"/>
<text x="129" y="169" style="font-family:sans-serif;font-size:10px;">
6.7
</text>
<rect x="228.0" y="224.0" width="10.0" height="15.0" style="fill:yellow; stroke:white;" rx="1"/>
<text x="230" y="233" style="font-family:sans-serif;font-size:10px;">
9
</text>
<rect x="170.5" y="256.0" width="10.0" height="15.0" style="fill:yellow; stroke:white;" rx="1"/>
<text x="172" y="265" style="font-family:sans-serif;font-size:10px;">
8
</text>
<rect x="62.5" y="192.0" width="19.0" height="15.0" style="fill:yellow; stroke:white;" rx="1"/>
<text x="64" y="201" style="font-family:sans-serif;font-size:10px;">
3.5
</text>
<rect x="176.25" y="96.0" width="8.0" height="15.0" style="fill:yellow; stroke:white;" rx="1"/>
<text x="178" y="105" style="font-family:sans-serif;font-size:10px;">
(
</text>
<rect x="49.5" y="96.0" width="45.0" height="15.0" style="fill:white; stroke:white;" rx="1"/>
<text x="51" y="105" style="font-family:sans-serif;font-size:10px;">
multExpr
</text>
<rect x="101.5" y="96.0" width="8.0" height="15.0" style="fill:yellow; stroke:white;" rx="1"/>
<text x="103" y="105" style="font-family:sans-serif;font-size:10px;">
*
</text>
<rect x="116.5" y="96.0" width="40.0" height="15.0" style="fill:white; stroke:white;" rx="1"/>
<text x="118" y="105" style="font-family:sans-serif;font-size:10px;">
primary
</text>
<rect x="52.0" y="128.0" width="40.0" height="15.0" style="fill:white; stroke:white;" rx="1"/>
<text x="54" y="137" style="font-family:sans-serif;font-size:10px;">
primary
</text>
<rect x="121.5" y="128.0" width="30.0" height="15.0" style="fill:white; stroke:white;" rx="1"/>
<text x="123" y="137" style="font-family:sans-serif;font-size:10px;">
value
</text>
<rect x="162.5" y="128.0" width="26.0" height="15.0" style="fill:white; stroke:white;" rx="1"/>
<text x="164" y="137" style="font-family:sans-serif;font-size:10px;">
expr
</text>
<rect x="131.75" y="32.0" width="45.0" height="15.0" style="fill:white; stroke:white;" rx="1"/>
<text x="133" y="41" style="font-family:sans-serif;font-size:10px;">
multExpr
</text>
<rect x="152.0" y="64.0" width="7.0" height="15.0" style="fill:yellow; stroke:white;" rx="1"/>
<text x="154" y="73" style="font-family:sans-serif;font-size:10px;">
/
</text>
<rect x="218.0" y="192.0" width="30.0" height="15.0" style="fill:white; stroke:white;" rx="1"/>
<text x="220" y="201" style="font-family:sans-serif;font-size:10px;">
value
</text>
<rect x="224.25" y="96.0" width="8.0" height="15.0" style="fill:yellow; stroke:white;" rx="1"/>
<text x="226" y="105" style="font-family:sans-serif;font-size:10px;">
)
</text>
<rect x="184.25" y="64.0" width="40.0" height="15.0" style="fill:white; stroke:white;" rx="1"/>
<text x="186" y="73" style="font-family:sans-serif;font-size:10px;">
primary
</text>
<rect x="213.0" y="160.0" width="40.0" height="15.0" style="fill:white; stroke:white;" rx="1"/>
<text x="215" y="169" style="font-family:sans-serif;font-size:10px;">
primary
</text>
<rect x="195.5" y="128.0" width="8.0" height="15.0" style="fill:yellow; stroke:white;" rx="1"/>
<text x="197" y="137" style="font-family:sans-serif;font-size:10px;">
-
</text>
<rect x="78.625" y="32.0" width="10.0" height="15.0" style="fill:yellow; stroke:white;" rx="1"/>
<text x="80" y="41" style="font-family:sans-serif;font-size:10px;">
+
</text>
<rect x="2.5" y="96.0" width="40.0" height="15.0" style="fill:white; stroke:white;" rx="1"/>
<text x="4" y="105" style="font-family:sans-serif;font-size:10px;">
primary
</text>
<rect x="191.25" y="96.0" width="26.0" height="15.0" style="fill:white; stroke:white;" rx="1"/>
<text x="193" y="105" style="font-family:sans-serif;font-size:10px;">
expr
</text>
<rect x="13.0" y="160.0" width="19.0" height="15.0" style="fill:yellow; stroke:white;" rx="1"/>
<text x="15" y="169" style="font-family:sans-serif;font-size:10px;">
1.2
</text>
<rect x="7.5" y="128.0" width="30.0" height="15.0" style="fill:white; stroke:white;" rx="1"/>
<text x="9" y="137" style="font-family:sans-serif;font-size:10px;">
value
</text>
<rect x="153.0" y="160.0" width="45.0" height="15.0" style="fill:white; stroke:white;" rx="1"/>
<text x="155" y="169" style="font-family:sans-serif;font-size:10px;">
multExpr
</text>
<rect x="81.75" y="64.0" width="45.0" height="15.0" style="fill:white; stroke:white;" rx="1"/>
<text x="83" y="73" style="font-family:sans-serif;font-size:10px;">
multExpr
</text>
<rect x="210.5" y="128.0" width="45.0" height="15.0" style="fill:white; stroke:white;" rx="1"/>
<text x="212" y="137" style="font-family:sans-serif;font-size:10px;">
multExpr
</text>
<rect x="155.5" y="192.0" width="40.0" height="15.0" style="fill:white; stroke:white;" rx="1"/>
<text x="157" y="201" style="font-family:sans-serif;font-size:10px;">
primary
</text>
<rect x="0.0" y="64.0" width="45.0" height="15.0" style="fill:white; stroke:white;" rx="1"/>
<text x="2" y="73" style="font-family:sans-serif;font-size:10px;">
multExpr
</text>
<rect x="9.5" y="32.0" width="26.0" height="15.0" style="fill:white; stroke:white;" rx="1"/>
<text x="11" y="41" style="font-family:sans-serif;font-size:10px;">
expr
</text>
<rect x="75.375" y="0.0" width="26.0" height="15.0" style="fill:white; stroke:white;" rx="1"/>
<text x="77" y="9" style="font-family:sans-serif;font-size:10px;">
expr
</text>
</svg>