<svg width="407.00000000000006" height="444.40000000000003" xmlns="http://www.w3.org/2000/svg" xmlns:xlink="http://www.w3.org/1999/xlink"><line x1="112.0" y1="7.5" x2="46.0" y2="32.0" style="stroke:black; stroke-width:1px;" />
<line x1="46.0" y1="39.5" x2="46.0" y2="64.0" style="stroke:black; stroke-width:1px;" />
<line x1="46.0" y1="71.5" x2="10.0" y2="96.0" style="stroke:black; stroke-width:1px;" />
<line x1="10.0" y1="103.5" x2="10.0" y2="128.0" style="stroke:black; stroke-width:1px;" />
<line x1="46.0" y1="71.5" x2="43.5" y2="96.0" style="stroke:black; stroke-width:1px;" />
<line x1="46.0" y1="71.5" x2="82.0" y2="96.0" style="stroke:black; stroke-width:1px;" />
<line x1="82.0" y1="103.5" x2="46.5" y2="128.0" style="stroke:black; stroke-width:1px;" />
<line x1="46.5" y1="135.5" x2="46.5" y2="160.0" style="stroke:black; stroke-width:1px;" />
<line x1="46.5" y1="167.5" x2="46.5" y2="192.0" style="stroke:black; stroke-width:1px;" />
<line x1="46.5" y1="199.5" x2="46.5" y2="224.0" style="stroke:black; stroke-width:1px;" />
<line x1="82.0" y1="103.5" x2="82.0" y2="128.0" style="stroke:black; stroke-width:1px;" />
<line x1="82.0" y1="103.5" x2="117.5" y2="128.0" style="stroke:black; stroke-width:1px;" />
<line x1="117.5" y1="135.5" x2="91.5" y2="160.0" style="stroke:black; stroke-width:1px;" />
<line x1="91.5" y1="167.5" x2="91.5" y2="192.0" style="stroke:black; stroke-width:1px;" />
<line x1="91.5" y1="199.5" x2="91.5" y2="224.0" style="stroke:black; stroke-width:1px;" />
<line x1="117.5" y1="135.5" x2="117.5" y2="160.0" style="stroke:black; stroke-width:1px;" />
<line x1="117.5" y1="135.5" x2="143.5" y2="160.0" style="stroke:black; stroke-width:1px;" />
<line x1="143.5" y1="167.5" x2="143.5" y2="192.0" style="stroke:black; stroke-width:1px;" />
<line x1="112.0" y1="7.5" x2="112.0" y2="32.0" style="stroke:black; stroke-width:1px;" />
<line x1="112.0" y1="7.5" x2="178.0" y2="32.0" style="stroke:black; stroke-width:1px;" />
<line x1="178.0" y1="39.5" x2="178.0" y2="64.0" style="stroke:black; stroke-width:1px;" />
<line x1="178.0" y1="71.5" x2="153.5" y2="96.0" style="stroke:black; stroke-width:1px;" />
<line x1="153.5" y1="103.5" x2="153.5" y2="128.0" style="stroke:black; stroke-width:1px;" />
<line x1="178.0" y1="71.5" x2="175.5" y2="96.0" style="stroke:black; stroke-width:1px;" />
<line x1="178.0" y1="71.5" x2="202.5" y2="96.0" style="stroke:black; stroke-width:1px;" />
<line x1="202.5" y1="103.5" x2="202.5" y2="128.0" style="stroke:black; stroke-width:1px;" />
<line x1="202.5" y1="135.5" x2="202.5" y2="160.0" style="stroke:black; stroke-width:1px;" />
<line x1="202.5" y1="167.5" x2="202.5" y2="192.0" style="stroke:black; stroke-width:1px;" />
<rect x="0.0" y="96.0" width="20.0" height="15.0" style="fill:white; stroke:white;" rx="1"/>
<text x="2" y="105" style="font-family:sans-serif;font-size:10px;">
var
</text>
<rect x="86.0" y="224.0" width="11.0" height="15.0" style="fill:white; stroke:white;" rx="1"/>
<text x="88" y="233" style="font-family:sans-serif;font-size:10px;">
C
</text>
<rect x="143.5" y="96.0" width="20.0" height="15.0" style="fill:white; stroke:white;" rx="1"/>
<text x="145" y="105" style="font-family:sans-serif;font-size:10px;">
var
</text>
<rect x="34.0" y="32.0" width="24.0" height="15.0" style="fill:white; stroke:white;" rx="1"/>
<text x="36" y="41" style="font-family:sans-serif;font-size:10px;">
stmt
</text>
<rect x="94.0" y="128.0" width="47.0" height="15.0" style="fill:white; stroke:white;" rx="1"/>
<text x="96" y="137" style="font-family:sans-serif;font-size:10px;">
products
</text>
<rect x="128.5" y="160.0" width="30.0" height="15.0" style="fill:white; stroke:white;" rx="1"/>
<text x="130" y="169" style="font-family:sans-serif;font-size:10px;">
value
</text>
<rect x="170.5" y="96.0" width="10.0" height="15.0" style="fill:white; stroke:white;" rx="1"/>
<text x="172" y="105" style="font-family:sans-serif;font-size:10px;">
=
</text>
<rect x="31.5" y="160.0" width="30.0" height="15.0" style="fill:white; stroke:white;" rx="1"/>
<text x="33" y="169" style="font-family:sans-serif;font-size:10px;">
value
</text>
<rect x="187.5" y="96.0" width="30.0" height="15.0" style="fill:white; stroke:white;" rx="1"/>
<text x="189" y="105" style="font-family:sans-serif;font-size:10px;">
sums
</text>
<rect x="67.0" y="96.0" width="30.0" height="15.0" style="fill:white; stroke:white;" rx="1"/>
<text x="69" y="105" style="font-family:sans-serif;font-size:10px;">
sums
</text>
<rect x="38.5" y="96.0" width="10.0" height="15.0" style="fill:white; stroke:white;" rx="1"/>
<text x="40" y="105" style="font-family:sans-serif;font-size:10px;">
=
</text>
<rect x="83.5" y="0.0" width="57.0" height="15.0" style="fill:white; stroke:white;" rx="1"/>
<text x="85" y="9" style="font-family:sans-serif;font-size:10px;">
statements
</text>
<rect x="108.5" y="32.0" width="7.0" height="15.0" style="fill:white; stroke:white;" rx="1"/>
<text x="110" y="41" style="font-family:sans-serif;font-size:10px;">
;
</text>
<rect x="187.5" y="160.0" width="30.0" height="15.0" style="fill:white; stroke:white;" rx="1"/>
<text x="189" y="169" style="font-family:sans-serif;font-size:10px;">
value
</text>
<rect x="113.5" y="160.0" width="8.0" height="15.0" style="fill:white; stroke:white;" rx="1"/>
<text x="115" y="169" style="font-family:sans-serif;font-size:10px;">
*
</text>
<rect x="166.0" y="32.0" width="24.0" height="15.0" style="fill:white; stroke:white;" rx="1"/>
<text x="168" y="41" style="font-family:sans-serif;font-size:10px;">
stmt
</text>
<rect x="28.0" y="64.0" width="36.0" height="15.0" style="fill:white; stroke:white;" rx="1"/>
<text x="30" y="73" style="font-family:sans-serif;font-size:10px;">
assign
</text>
<rect x="138.5" y="192.0" width="10.0" height="15.0" style="fill:white; stroke:white;" rx="1"/>
<text x="140" y="201" style="font-family:sans-serif;font-size:10px;">
2
</text>
<rect x="41.0" y="224.0" width="11.0" height="15.0" style="fill:white; stroke:white;" rx="1"/>
<text x="43" y="233" style="font-family:sans-serif;font-size:10px;">
B
</text>
<rect x="4.0" y="128.0" width="12.0" height="15.0" style="fill:white; stroke:white;" rx="1"/>
<text x="6" y="137" style="font-family:sans-serif;font-size:10px;">
A
</text>
<rect x="81.5" y="192.0" width="20.0" height="15.0" style="fill:white; stroke:white;" rx="1"/>
<text x="83" y="201" style="font-family:sans-serif;font-size:10px;">
var
</text>
<rect x="36.5" y="192.0" width="20.0" height="15.0" style="fill:white; stroke:white;" rx="1"/>
<text x="38" y="201" style="font-family:sans-serif;font-size:10px;">
var
</text>
<rect x="179.0" y="128.0" width="47.0" height="15.0" style="fill:white; stroke:white;" rx="1"/>
<text x="181" y="137" style="font-family:sans-serif;font-size:10px;">
products
</text>
<rect x="76.5" y="160.0" width="30.0" height="15.0" style="fill:white; stroke:white;" rx="1"/>
<text x="78" y="169" style="font-family:sans-serif;font-size:10px;">
value
</text>
<rect x="197.5" y="192.0" width="10.0" height="15.0" style="fill:white; stroke:white;" rx="1"/>
<text x="199" y="201" style="font-family:sans-serif;font-size:10px;">
1
</text>
<rect x="77.0" y="128.0" width="10.0" height="15.0" style="fill:white; stroke:white;" rx="1"/>
<text x="79" y="137" style="font-family:sans-serif;font-size:10px;">
+
</text>
<rect x="160.0" y="64.0" width="36.0" height="15.0" style="fill:white; stroke:white;" rx="1"/>
<text x="162" y="73" style="font-family:sans-serif;font-size:10px;">
assign
</text>
<rect x="23.0" y="128.0" width="47.0" height="15.0" style="fill:white; stroke:white;" rx="1"/>
<text x="25" y="137" style="font-family:sans-serif;font-size:10px;">
products
</text>
<rect x="148.0" y="128.0" width="11.0" height="15.0" style="fill:white; stroke:white;" rx="1"/>
<text x="150" y="137" style="font-family:sans-serif;font-size:10px;">
D
</text>
</svg>